<?xml version="1.0" standalone="no"?>
<!DOCTYPE svg PUBLIC "-//W3C//DTD SVG 20010904//EN"
 "http://www.w3.org/TR/2001/REC-SVG-20010904/DTD/svg10.dtd">
<svg version="1.0" xmlns="http://www.w3.org/2000/svg"
 width="288.000000pt" height="288.000000pt" viewBox="0 0 288.000000 288.000000"
 preserveAspectRatio="xMidYMid meet">
<metadata>
Created by potrace 1.14, written by Peter Selinger 2001-2017
</metadata>
<g transform="translate(0.000000,288.000000) scale(0.100000,-0.100000)"
fill="#000000" stroke="none">
<path d="M1380 2869 c-99 -40 -163 -185 -162 -364 1 -198 28 -335 109 -563 59
-167 89 -276 99 -365 4 -32 8 -56 10 -54 3 3 9 38 20 112 3 28 41 156 84 285
101 306 110 346 115 543 3 134 -2 172 -36 261 -20 56 -77 125 -114 140 -33 14
-98 16 -125 5z"/>
<path d="M486 2495 c-147 -51 -147 -234 2 -411 62 -74 192 -185 287 -246 39
-24 147 -81 240 -127 187 -91 240 -121 331 -192 l61 -47 -68 91 c-47 63 -99
153 -165 287 -113 230 -195 358 -296 461 -81 84 -133 126 -193 157 -37 18 -57
24 -135 36 -14 2 -43 -2 -64 -9z"/>
<path d="M2254 2490 c-76 -24 -142 -66 -218 -139 -120 -116 -205 -240 -320
-471 -105 -210 -174 -326 -221 -370 -14 -13 -25 -28 -25 -34 0 -8 3 -8 8 -1 9
14 114 92 167 126 22 14 129 69 237 122 216 107 325 179 438 289 159 155 215
299 157 408 -40 75 -126 102 -223 70z"/>
<path d="M350 1663 c-136 -8 -245 -48 -302 -111 -60 -67 -61 -151 -2 -221 34
-41 134 -88 218 -102 65 -11 244 -8 321 6 106 19 197 44 359 100 179 62 291
91 369 97 45 3 50 18 5 18 -54 0 -194 37 -358 94 -235 82 -315 102 -457 111
-48 4 -92 7 -98 8 -5 1 -30 1 -55 0z"/>
<path d="M2339 1656 c-2 -2 -29 -7 -59 -10 -90 -11 -203 -44 -475 -140 -38
-13 -83 -27 -100 -30 -91 -17 -143 -26 -167 -28 -37 -3 -26 -11 20 -15 75 -6
190 -35 317 -79 296 -103 389 -124 575 -130 158 -4 249 14 328 65 70 46 108
114 96 170 -31 139 -155 200 -405 200 -70 0 -129 -2 -130 -3z"/>
<path d="M1431 1494 c0 -11 3 -14 6 -6 3 7 2 16 -1 19 -3 4 -6 -2 -5 -13z"/>
<path d="M1490 1384 c14 -16 27 -31 30 -34 27 -24 115 -179 195 -342 107 -219
182 -332 295 -446 194 -197 369 -238 464 -109 28 39 28 152 -1 217 -30 66
-105 161 -176 222 -34 29 -68 59 -76 66 -42 40 -181 122 -348 205 -212 106
-249 127 -343 200 -45 34 -57 41 -40 21z"/>
<path d="M1364 1379 c-35 -38 -153 -110 -306 -185 -84 -41 -162 -79 -172 -85
-11 -6 -40 -23 -65 -36 -129 -71 -303 -223 -371 -323 -71 -106 -93 -217 -56
-287 28 -56 72 -78 151 -78 59 0 81 5 136 32 166 82 333 286 475 581 86 177
128 251 192 335 43 57 54 88 16 46z"/>
<path d="M1430 1333 c0 -59 -41 -215 -100 -383 -87 -248 -112 -372 -112 -553
0 -71 5 -122 17 -177 29 -133 130 -231 222 -214 120 22 194 156 198 359 4 193
-24 347 -102 565 -35 97 -72 210 -78 239 -2 9 -8 36 -14 61 -5 25 -11 63 -13
83 -3 45 -18 61 -18 20z"/>
</g>
</svg>
