<svg xmlns="http://www.w3.org/2000/svg" xmlns:xlink="http://www.w3.org/1999/xlink" viewBox="0 0 88 49" fill="#fff" fill-rule="evenodd" stroke="#000" stroke-linecap="round" stroke-linejoin="round"><use xlink:href="#A" x=".5" y=".5"/><symbol id="A" overflow="visible"><path d="M64.054.145l-.045-.1c-.022-.022-.045-.045-.1-.045l-.1.023c-.045.045-.068.068-.068.113l-1.918 34.73.294-.045 1.869-33.776 2.212 3.634h-.023c1.67 4.92 2.37 10.155 2.1 15.707l.135.203 2.19 3.88.135.135c3.363 2.956 7.13 4.942 11.306 5.958l1.015 1.647.135.045.023-.045L64.018.797l.045-.655m-.676 12.257c2.37 4.852 3.227 12.186 2.595 22.003l9.23-1.128zm21.021 21.326c.948-.113 1.557-.316 1.828-.61l-48.317 5.9c.023 2.008.925 3.588 2.685 4.716.474.34.97.587 1.422.745.43-.496.903-.858 1.467-1.196h.022c5.055-3.07 12.57-3.543 22.5-1.444l.113.022c1.083.226 2.166.497 3.182.812a.88.88 0 0 0 .745-.226c.36-.27.813-.474 1.422-.61v-.023c1.602-2.844 3.77-4.942 6.477-6.32 1.873-.925 4.04-1.535 6.454-1.76m-23.2.88L63.42.715A115 115 0 0 1 48.008 35.35l13.202-.745M48.775 7.299l-.1-.045-.1.023-.045.113-1.828 29.338.27-.023L48.8 7.39l-.045-.1m-2.552 28.805l1.94-28.615-10.222 29.495 8.282-.88" stroke="none" fill="#ccc" fill-rule="nonzero"/><path d="M46.608 45.633c-2.55 1.22-4.4 1.422-5.574.677-1.174-.8-2.98-.61-5.416.54m16.97-1.038c-.474-.158-.993-.27-1.534-.316-1.106-.1-2.437.34-3.995 1.264-1.557.948-3.43 1.31-5.665 1.106m25.118-4.356C55.77 41.3 48.029 41.817 43.29 45.09m29.992-.52a4.89 4.89 0 0 0-1.535-.316c-1.106-.1-2.437.34-3.994 1.264s-3.43 1.286-5.665 1.106M58.863 7.57c-1.106-.677-2.257-.497-3.453.564-1.038-1.06-2.12-1.24-3.25-.564m4.197-3.79c-1.13-.677-2.234-.406-3.363.812-1.106-1.22-2.234-1.49-3.363-.812" stroke="#ccc" fill="none" stroke-width=".266"/><g stroke="none" fill-rule="nonzero"><path d="M1.248 39.112h2.99c.9 0 1.56.256 1.98.767s.558 1.225.4 2.14c-.06.375-.17.72-.325 1.033a3.32 3.32 0 0 1-.617.859 2.68 2.68 0 0 1-1.022.67c-.377.135-.86.202-1.446.202h-1.32l-.332 2.05H0zm1.358 1.222l-.524 3.24h.946c.627 0 1.092-.128 1.395-.384s.502-.683.598-1.28c.093-.576.04-.982-.162-1.22s-.597-.356-1.188-.356H2.605m5.77-3.273h1.544l-.332 2.05h1.374c.865 0 1.464.164 1.798.49s.442.855.325 1.584l-.58 3.597h-1.568l.553-3.423c.063-.39.032-.654-.09-.794s-.383-.2-.778-.2H9.388l-.716 4.428H7.118l1.248-7.723m6.4 2.05h2.99c.9 0 1.56.256 1.98.767s.558 1.225.4 2.14c-.06.375-.17.72-.324 1.033s-.362.6-.617.86a2.68 2.68 0 0 1-1.022.67c-.377.135-.86.202-1.446.202h-1.332l-.332 2.05h-1.545zm1.358 1.222l-.524 3.24h.946c.627 0 1.092-.128 1.395-.384s.502-.683.6-1.28c.093-.576.04-.982-.162-1.22s-.597-.356-1.188-.356h-1.066" fill="#6c78af"/><path d="M22.778 35.42h2.992l1.314 7.18 3.636-7.18h2.98l-1.512 9.358H30.19l1.343-7.29-3.666 7.29h-2.165l-1.377-7.366-.986 7.366h-2.075l1.512-9.358m14.514 7.843h1.51l.866-5.358h1.878l-1.08 6.688c-.147.91-.475 1.583-.986 2.02s-1.218.656-2.123.656h-3.682l.225-1.392h3.36c.36 0 .65-.084.872-.253s.357-.412.41-.732l.02-.115h-1.662c-1.063 0-1.788-.203-2.175-.608s-.504-1.08-.35-2.028l.685-4.237h1.857l-.662 4.097c-.084.518-.06.858.076 1.02s.457.242.967.242m9.312-7.843h2.162l2.62 9.358h-2.272l-.53-2.227h-4.212l-1.224 2.227H40.99zm.702 1.858l-2 3.602h2.887l-.888-3.602m11.16 7.5h-3.611c-1.1 0-1.89-.3-2.402-.93s-.676-1.484-.497-2.592c.074-.455.205-.87.394-1.252a4.03 4.03 0 0 1 .749-1.041 3.24 3.24 0 0 1 1.242-.812c.459-.162 1.043-.245 1.75-.245h1.61l.402-2.485h1.87zm-1.633-1.474l.633-3.918h-1.141c-.762 0-1.327.154-1.696.462s-.61.82-.727 1.54c-.113.697-.046 1.19.2 1.48s.725.436 1.438.436h1.288m4.376-5.4h7.21c1.046 0 1.767.197 2.165.592s.524 1.035.38 1.922l-.705 4.358h-1.889l.666-4.131c.082-.505.057-.84-.075-1s-.444-.242-.935-.242h-1.053l-.867 5.365h-1.92l.867-5.365h-2.195l-.867 5.365h-1.891l1.11-6.872m13.938-.78h-1.97l.275-1.705h1.97zm-1.228 7.662h-1.97l1.11-6.872h1.97l-1.11 6.872m2.735-6.872h3.533c1.068 0 1.8.194 2.193.582s.52 1.032.373 1.932l-.704 4.358H80.17l.67-4.135c.083-.514.054-.847-.086-1s-.46-.23-.955-.23h-1.5l-.867 5.365h-1.878l1.11-6.872" fill="#f89c0e"/></g></symbol></svg>