<svg xmlns="http://www.w3.org/2000/svg" width="211.915" height="100" viewBox="0 0 211.915 100">
  <g id="arduino" transform="translate(-4.139)">
    <g id="Group_14" data-name="Group 14" transform="translate(4.139)">
      <path id="Path_47" data-name="Path 47" d="M161.679,100c-13.536,0-25.113-4.565-35.292-13.9C120.1,80.334,114.9,73.272,110.135,65.928c-4.773,7.344-9.961,14.441-16.251,20.172C82.941,96.131,70.391,100.653,55.492,99.924,27.153,99.8,4.139,77.435,4.139,49.962,4.139,22.412,27.28,0,55.732,0A56.394,56.394,0,0,1,95.8,15.744a100.115,100.115,0,0,1,14.3,17.174,100.736,100.736,0,0,1,14.3-17.174A56.493,56.493,0,0,1,164.461,0c28.449,0,51.593,22.412,51.593,49.962,0,27.473-23.017,49.839-51.353,49.962-1.029.049-2.05.07-3.057.07ZM120.494,49.254c5.646,9.158,11.13,17.688,17.8,23.8,7.537,6.9,15.476,9.746,25.712,9.2l.458-.014c18.724,0,33.954-14.5,33.954-32.327s-15.233-32.327-33.954-32.327a38.976,38.976,0,0,0-28.054,11.024c-6.041,5.618-11.024,12.821-15.955,20.64Zm-64.738-31.7c-18.724,0-33.954,14.5-33.954,32.327S37.036,82.208,55.756,82.208l.458.014c10.267.542,18.21-2.3,25.74-9.2,6.675-6.118,12.152-14.642,17.8-23.8C94.832,41.4,89.844,34.2,83.807,28.575A38.967,38.967,0,0,0,55.753,17.551Z" transform="translate(-4.139 0)" fill="#00979c"/>
      <path id="Path_48" data-name="Path 48" d="M141.933,19.2V9.639h-9.954V19.2h-9.594v9.9h9.563v9.668H141.9V29.141h9.563v-9.9h-9.531m-125.39-.151H47.971V29.3H16.543Z" transform="translate(20.764 24.311)" fill="#00979c"/>
    </g>
  </g>
</svg>
