<svg xmlns="http://www.w3.org/2000/svg" width="88.975" height="100" viewBox="0 0 88.975 100">
  <g id="c-sharp" transform="translate(-1512 -731)">
    <path id="Path_176" data-name="Path 176" d="M88.97,29.4a8.83,8.83,0,0,0-1.088-4.442,8.495,8.495,0,0,0-3.219-3.136Q66.9,11.577,49.121,1.346a8.726,8.726,0,0,0-9.456.094C34.95,4.22,11.345,17.744,4.312,21.818A8.216,8.216,0,0,0,0,29.4Q0,50,0,70.6A8.861,8.861,0,0,0,1.04,74.96a8.465,8.465,0,0,0,3.268,3.222c7.034,4.074,30.642,17.6,35.356,20.378a8.726,8.726,0,0,0,9.459.094Q66.884,88.4,84.667,78.178a8.469,8.469,0,0,0,3.267-3.221,8.873,8.873,0,0,0,1.04-4.358s0-27.463,0-41.2" transform="translate(1512 731)" fill="#a179dc"/>
    <path id="Path_177" data-name="Path 177" d="M46.571,143.241,2.988,168.335a8.465,8.465,0,0,0,3.268,3.222c7.034,4.074,30.642,17.6,35.356,20.378a8.726,8.726,0,0,0,9.459.094q17.762-10.256,35.545-20.476a8.468,8.468,0,0,0,3.268-3.221L46.571,143.241" transform="translate(1510.052 637.625)" fill="#280068"/>
    <path id="Path_178" data-name="Path 178" d="M172.529,76.134a8.831,8.831,0,0,0-1.088-4.442L128.182,96.6l43.311,25.091a8.881,8.881,0,0,0,1.04-4.358s0-27.463,0-41.2" transform="translate(1428.442 684.266)" fill="#390091"/>
    <path id="Path_179" data-name="Path 179" d="M188.718,116.294v4.691h4.691v-4.691h2.345v4.691h4.691v2.345h-4.691v4.69h4.691v2.345h-4.691v4.691h-2.345v-4.691h-4.691v4.691h-2.345v-4.691h-4.69V128.02h4.69v-4.69h-4.69v-2.345h4.69v-4.691Zm4.691,7.036h-4.691v4.69h4.691Z" transform="translate(1393.566 655.191)" fill="#fff"/>
    <path id="Path_180" data-name="Path 180" d="M66.528,48.626A33.06,33.06,0,0,1,95.166,65.147l-.056-.1L80.716,73.34a16.46,16.46,0,0,0-14-8.109h-.188a16.468,16.468,0,1,0,14.35,24.543l-.069.12,14.373,8.326A33.062,33.062,0,0,1,66.9,114.768l-.368,0a33.072,33.072,0,1,1,0-66.144Z" transform="translate(1490.191 699.302)" fill="#fff"/>
  </g>
</svg>
