<svg xmlns="http://www.w3.org/2000/svg" width="133.115" height="100" viewBox="0 0 133.115 100">
  <g id="docker" transform="translate(-162.817 -501)">
    <path id="Path_163" data-name="Path 163" d="M131.879,30.924c-.361-.283-3.736-2.8-10.856-2.8a35.106,35.106,0,0,0-5.608.475,20.187,20.187,0,0,0-9.292-13.9l-1.911-1.089L102.954,15.4a24.824,24.824,0,0,0-3.642,7.675,18.349,18.349,0,0,0,2.239,14.583c-3.311,1.819-8.953,1.981-10.025,2.019H4.255A4.149,4.149,0,0,0,.085,43.777,62.891,62.891,0,0,0,3.713,66.33C6.738,74.157,11.241,79.924,17.1,83.452c6.561,3.964,17.222,6.231,29.308,6.231a88.572,88.572,0,0,0,16.275-1.456,68.7,68.7,0,0,0,21.242-7.611,58.3,58.3,0,0,0,14.5-11.708c6.958-7.772,11.1-16.425,14.186-24.117h1.228c7.619,0,12.3-3.008,14.886-5.528a16.045,16.045,0,0,0,3.928-5.736l.547-1.578Z" transform="translate(162.738 511.317)" fill="#2395ec"/>
    <path id="Path_164" data-name="Path 164" d="M15.111,30.889H6.778A2.779,2.779,0,0,1,4,28.111V19.778A2.779,2.779,0,0,1,6.778,17h8.333a2.779,2.779,0,0,1,2.778,2.778v8.333A2.779,2.779,0,0,1,15.111,30.889Z" transform="translate(169.71 517.333)" fill="#2395ec"/>
    <path id="Path_165" data-name="Path 165" d="M21.111,30.889H12.778A2.779,2.779,0,0,1,10,28.111V19.778A2.779,2.779,0,0,1,12.778,17h8.333a2.779,2.779,0,0,1,2.778,2.778v8.333A2.779,2.779,0,0,1,21.111,30.889Z" transform="translate(180.376 517.333)" fill="#2395ec"/>
    <path id="Path_166" data-name="Path 166" d="M27.111,30.889H18.778A2.779,2.779,0,0,1,16,28.111V19.778A2.779,2.779,0,0,1,18.778,17h8.333a2.779,2.779,0,0,1,2.778,2.778v8.333A2.779,2.779,0,0,1,27.111,30.889Z" transform="translate(191.043 517.333)" fill="#2395ec"/>
    <path id="Path_167" data-name="Path 167" d="M33.111,30.889H24.778A2.779,2.779,0,0,1,22,28.111V19.778A2.779,2.779,0,0,1,24.778,17h8.333a2.779,2.779,0,0,1,2.778,2.778v8.333A2.779,2.779,0,0,1,33.111,30.889Z" transform="translate(201.709 517.333)" fill="#2395ec"/>
    <path id="Path_168" data-name="Path 168" d="M21.111,24.889H12.778A2.779,2.779,0,0,1,10,22.111V13.778A2.779,2.779,0,0,1,12.778,11h8.333a2.779,2.779,0,0,1,2.778,2.778v8.333A2.779,2.779,0,0,1,21.111,24.889Z" transform="translate(180.376 506.667)" fill="#2395ec"/>
    <path id="Path_169" data-name="Path 169" d="M27.111,24.889H18.778A2.779,2.779,0,0,1,16,22.111V13.778A2.779,2.779,0,0,1,18.778,11h8.333a2.779,2.779,0,0,1,2.778,2.778v8.333A2.779,2.779,0,0,1,27.111,24.889Z" transform="translate(191.043 506.667)" fill="#2395ec"/>
    <path id="Path_170" data-name="Path 170" d="M33.111,24.889H24.778A2.779,2.779,0,0,1,22,22.111V13.778A2.779,2.779,0,0,1,24.778,11h8.333a2.779,2.779,0,0,1,2.778,2.778v8.333A2.779,2.779,0,0,1,33.111,24.889Z" transform="translate(201.709 506.667)" fill="#2395ec"/>
    <path id="Path_171" data-name="Path 171" d="M33.111,18.889H24.778A2.779,2.779,0,0,1,22,16.111V7.778A2.779,2.779,0,0,1,24.778,5h8.333a2.779,2.779,0,0,1,2.778,2.778v8.333A2.779,2.779,0,0,1,33.111,18.889Z" transform="translate(201.709 496)" fill="#2395ec"/>
    <path id="Path_172" data-name="Path 172" d="M39.111,30.889H30.778A2.779,2.779,0,0,1,28,28.111V19.778A2.779,2.779,0,0,1,30.778,17h8.333a2.779,2.779,0,0,1,2.778,2.778v8.333A2.779,2.779,0,0,1,39.111,30.889Z" transform="translate(212.376 517.333)" fill="#2395ec"/>
  </g>
</svg>
