<svg id="expressjs" xmlns="http://www.w3.org/2000/svg" width="150" height="33.473" viewBox="0 0 150 33.473">
  <path id="Path_55" data-name="Path 55" d="M46.523,33.473V.655H48.3V5.817a6.763,6.763,0,0,0,.581-.728A8.822,8.822,0,0,1,56.93.1c4.059-.121,7.357,1.381,9.295,4.993A16.049,16.049,0,0,1,66.612,19.8c-1.806,4.047-6.266,6.059-11.041,5.32a8.929,8.929,0,0,1-7.126-4.7V33.471ZM48.3,12.264l.4,3.854c.7,4.386,3.3,6.978,7.368,7.465a8.374,8.374,0,0,0,9.2-5.32,14.275,14.275,0,0,0-.313-11.732,8.2,8.2,0,0,0-8.641-4.775,7.989,7.989,0,0,0-7.137,5.9,40.753,40.753,0,0,0-.873,4.605Zm56.248,4.46a9.6,9.6,0,0,1-9.38,8.483c-7.465.376-10.968-4.581-11.525-10.3A16.5,16.5,0,0,1,85.1,5.816,10.139,10.139,0,0,1,95.655.157a9.7,9.7,0,0,1,8.6,7.381,50.03,50.03,0,0,1,.836,5.454H85.49c-.363,5.186,2.424,9.356,6.374,10.362,4.92,1.21,9.125-.921,10.652-5.6.339-1.2.957-1.37,2.048-1.03ZM85.476,11.331h17.536c-.11-5.525-3.55-9.541-8.217-9.587-5.269-.085-9.09,3.77-9.319,9.587Zm22.7,5.514h1.719a6.892,6.892,0,0,0,4.047,5.938,10.581,10.581,0,0,0,9.187-.242,4.13,4.13,0,0,0,2.424-4.06,3.745,3.745,0,0,0-2.521-3.745c-1.891-.7-3.9-1.091-5.829-1.709a42.737,42.737,0,0,1-5.866-2.145c-3.1-1.515-3.3-7.417.218-9.285a12.375,12.375,0,0,1,11.828-.182,6.23,6.23,0,0,1,3.151,6.351h-1.474c0-.071-.134-.134-.134-.206-.182-4.7-4.133-6.169-8.374-5.756a10.708,10.708,0,0,0-3.636,1.1,3.631,3.631,0,0,0-2.108,3.636,3.631,3.631,0,0,0,2.424,3.418c1.851.679,3.816,1.115,5.732,1.648l4.628,1.21a5.468,5.468,0,0,1,3.757,4.933,5.829,5.829,0,0,1-3.139,6.059C120.165,26.1,113.5,25.5,110.529,22.6a8.078,8.078,0,0,1-2.35-5.756ZM149.16,7.768h-1.612a3.664,3.664,0,0,0-.11-.594,5.269,5.269,0,0,0-4.291-5.065,10.581,10.581,0,0,0-6.8.328,4.13,4.13,0,0,0-2.993,3.939,3.8,3.8,0,0,0,2.908,3.829l7.368,1.891a20.493,20.493,0,0,1,2.35.715,6.055,6.055,0,0,1,.313,11.283,13.486,13.486,0,0,1-10.907.11,7.562,7.562,0,0,1-4.557-7.344h1.575a8.835,8.835,0,0,0,13.452,5.624,4.329,4.329,0,0,0,2.327-4.047,3.745,3.745,0,0,0-2.558-3.721c-1.891-.7-3.9-1.078-5.829-1.709a42.936,42.936,0,0,1-5.9-2.12c-3.03-1.491-3.273-7.344.182-9.211A12.2,12.2,0,0,1,146.1,1.541a6.337,6.337,0,0,1,3.042,6.217ZM43.594,24.615a2.777,2.777,0,0,1-3.442-1.309l-6.266-8.665-.909-1.21-7.271,9.889A2.663,2.663,0,0,1,22.433,24.6L31.8,12.036,23.086.681a2.9,2.9,0,0,1,3.453,1.21l6.494,8.772,6.532-8.738A2.606,2.606,0,0,1,42.813.713L39.431,5.2,34.85,11.163a1.21,1.21,0,0,0,0,1.806l8.725,11.646ZM83.368.56V2.268a8.787,8.787,0,0,0-9.356,9.077q0,5.987,0,11.974v1.357H72.279V.666h1.709v4.92C76.084,2,79.319.666,83.379.57ZM0,11.894l.763-3.77C2.862.671,11.407-2.431,17.285,2.186c3.442,2.7,4.3,6.532,4.133,10.847H2.026c-.313,7.707,5.248,12.361,12.361,9.986A7.407,7.407,0,0,0,19.077,17.8c.376-1.21,1-1.418,2.133-1.068a9.84,9.84,0,0,1-4.7,7.187,11.393,11.393,0,0,1-13.271-1.7A11.943,11.943,0,0,1,.256,15.212,4.805,4.805,0,0,0,.014,14Q0,12.923,0,11.894Zm2.048-.521H19.587c-.11-5.587-3.636-9.55-8.338-9.587-5.235-.071-8.98,3.805-9.211,9.563Z" transform="translate(0 0)"/>
</svg>
