<svg id="firebase" xmlns="http://www.w3.org/2000/svg" width="75.001" height="100" viewBox="0 0 75.001 100">
  <g id="Group_16" data-name="Group 16" transform="translate(0 0)">
    <path id="Path_56" data-name="Path 56" d="M43.408,33.258l-10.4,9.314L23.364,23.838l4.993-10.774c1.264-2.16,3.325-2.164,4.589,0L43.409,33.258Z" transform="translate(5.841 2.861)" fill="#ffa000" fill-rule="evenodd"/>
    <path id="Path_57" data-name="Path 57" d="M38.853,40.093,0,74.89l29.2-53.531Z" transform="translate(0 5.34)" fill="#f57f17" fill-rule="evenodd"/>
    <path id="Path_58" data-name="Path 58" d="M60.621,17.7c1.858-1.719,3.778-1.133,4.266,1.3L75,75.584,41.477,94.927a16.435,16.435,0,0,1-4.28.894,16.094,16.094,0,0,1-3.916-.9L0,76.048Z" transform="translate(0 4.18)" fill="#ffca28" fill-rule="evenodd"/>
    <path id="Path_59" data-name="Path 59" d="M29.205,26.7,0,80.23,13.009,1.993c.479-2.438,1.92-2.671,3.206-.521L29.205,26.7Z" transform="translate(0 0)" fill="#ffa000" fill-rule="evenodd"/>
  </g>
</svg>
