<svg id="flask-icon" xmlns="http://www.w3.org/2000/svg" width="112.124" height="100" viewBox="0 0 112.124 100">
  <path id="Path_60" data-name="Path 60" d="M33.513,89.077C29.238,85.713,24.682,82.5,21.57,77.962A90.953,90.953,0,0,1,6.523,50.968c-2.085-6.329-2.8-13.117-5.488-19.2-2.81-4.415.484-9.251,5.327-10.653,2.155-.414,5.943-2.453,1.4-1-4.1,3.007-4.5-2.733-.291-3.1,2.874-.35,3.925-2.733,2.944-4.843-3.084-2.011,7.471-4.216,2.159-7.219C7.008-1,20.277-2.15,17,4.627c-.778,5.207,9.272-.96,6.939,5.06,2.372,2.891,8.88.659,8.715,4.713,3.455.238,4.64,3.143,7.885,3.364,3.364,1.517,9.451,2.712,10.594,6.5-3.329,2.639-11.049-5.449-11.424,1.857,1.009,10.793.75,21.909,4.7,32.187,1.868,6.22,6.4,11.119,10.513,15.966,3.914,4.745,9.216,8.088,14.613,10.863a59.842,59.842,0,0,0,15.009,4.647c2.092-1.6,5.793-7.555,9.055-5.046.158,2.824-6.483,5.9-.35,5.589,3.627-1.093,6.14,2.8,9.122-.715,2.751,3.259,11.424-2.078,9.472,4.577-2.646,1.707-6.5.676-9.153,3.024-4.37-2.183-7.85,1.952-12.686,1.43A92.907,92.907,0,0,1,73.722,100c-8.936-.7-18.058-1-26.556-4.114C42.375,94.5,37.7,91.769,33.5,89.039Zm7.545,3.27c4.675,2.018,9.251,4.149,14.368,4.794,8.13,1.128,16.523,2.874,24.681,1.283-3.694-1.668-7.51.648-11.189-1.191-4.415.946-9.111-.245-13.667-.831-5.1-2.271-10.6-3.834-15.377-6.784-5.968-2.18,3.084,2.8,4.7,3.2,3.729,2.117-4.1-1.051-5.207-1.962-3.126-1.752-3.522-1.388-.308.392l1.962,1.1Zm-8.9-6.287c4.531,1.682-.021-3.154-2.092-2.909-.918-1.594-3.515-2.6-1.682-3.459-3.294,1.142-3.448-4.345-4.994-3.56-3.483-1.1-1.356-5-5.5-7.359-.378-2.523-4.121-4.706-5.313-8.508-.526-1.948-4.23-7.534-1.955-2.334,1.934,5.011,5.341,9.3,8.179,13.579,2.2,4.079,4.8,8.34,8.81,10.888,1.353,1.3,2.656,3.284,4.563,3.69ZM19.107,71.693C19.265,71.009,19.934,73.171,19.107,71.693ZM37.585,88.033C38.587,87.585,36.141,87.465,37.585,88.033Zm2.453.9C39.782,87.693,38.917,89.624,40.038,88.93Zm3.084,1.283C44.587,88.818,40.862,89.337,43.122,90.213ZM48.4,93.156C49.289,91.842,45.55,92.666,48.4,93.156ZM38.237,86.1C40.515,84.623,35.293,86.074,38.237,86.1Zm2.313,1.156C40.48,86.474,39.726,87.6,40.55,87.252Zm11.54,7.2c1.857,1.17,10.835,2.565,5.214.48C56.358,95.133,46.879,92.252,52.089,94.457ZM33.769,80.187C33.594,79.409,30.888,79.325,33.769,80.187Zm5.372,3.133C40.543,82.339,36.239,82.566,39.141,83.32Zm4.556,2.8C45.7,85.366,40.445,85.363,43.7,86.123ZM31.572,77.8c2.173,1.668,8.782.21,3.329-1-2.478-1.321-8.06-2.225-4.254.8l.922.2ZM46.71,87.041C47.621,85.5,42.9,86.158,46.71,87.041Zm-4.6-3.655c5.327,1.507-4.475-3.364-1.314-.561l.7.35.613.238Zm9.223,5.327C56.379,88.762,46.777,88.012,51.332,88.713ZM29.63,74.882C29.434,73.942,28.386,74.959,29.63,74.882ZM59.862,93.5C60,91.8,58.215,94.758,59.862,93.5ZM38.24,80.18C37.936,79.286,36.663,80.145,38.24,80.18Zm-8.13-5.852C33,74.153,26.151,73.052,30.11,74.328Zm-9.588-6.182C20.162,66.759,17.376,65.651,20.523,68.146ZM45.8,84.185C45.27,83.579,45.55,84.315,45.8,84.185ZM61.523,93.84C61.474,92.915,60.668,94.19,61.523,93.84ZM44.4,82.749C44.685,81.557,41.934,82.388,44.4,82.749ZM32.686,75.32C34.841,75.092,29.234,73.865,32.686,75.32Zm19.82,12.318C55.864,86.306,49.237,86.989,52.506,87.637Zm-10.31-7c3.865.5-4.6-2.628-.852-.28ZM55.636,88.9c3.609-2.155,2.453,5.057,6.126.61,3.655-2.67-3.154,3.3,1.346.477,3.259-2.18,8.07,1.034,11.109,2.078,2.187-.105,4.31,1.892,6.553.676,4.31-1.163-8.438-1.724-5.1-3.785-3.946,1.149-6.861-1.4-8.806-3.9-4.429-1.023-9.546-3.287-11.757-7.2-.9-1.472,1.3.21-.778-2.2-2.663-2.372-3.995-5.067-5.789-7.955-2.1-1.139-2.393-4.5-2.607-.112.018-2.8-2.583-4.636-3.224-3.862-.011-2.663,2.786-1.332.827-3.3-.421-2.8-1.808-5.607-2.222-8.768-.648-1.507-.091-4.731-2.208-1.321-.771,3.6-.256-4.422.946-1.78,1.577-2.7-.568-2.383-.652-2.008,1.027-2.278.652-5.509-.27-4.275.547-2.453.866-8.883-.816-7.738,1.051-2.523,1.934-11.554-2.5-8.112a18.816,18.816,0,0,0-6.367,1.381c4.6,2.537-.463.918-2.341.512-.245,2.348-2.1,1.332-4.415,1.356,3.708.456-1.8,3.785-3.925,2.5-2.761,1.318,2.383,4.612.053,5.631.287,1.531-4.23-.554-3.876,2.993-2.677-1.128-.368,4.205.974,2.4,4.556,1.234,3.206,4.044,3.322,6.718-.743,1.556-3.666-3.658-.652-3.417-2.383-3.865-2.628-1.4-4.608.4-.456.13,5.046,2.558,1.591,3.75,3.038.47,3.126,3.129,3.743,4.808,1.822,1.9,1.447-2.1,3.634.186C21.57,53.607,15.6,49.9,20.414,51.084c-.025-2.047-.866-3.7.6-3.662,1.454-2.628-1.521,6.483,1.752,3.14.9-.4,1.132-2.628,2.758.21,2.362,2.327.855,4.009-2.481,1.878.6,2.025,4.461,2.747,3.732,5.912.771,2.786,1.847,1.759,2.786,1.6.7,2.705,1.156.715,1.191-.571,3.371.722,2.579,2.716,3.637,4.107,2.323,1.051-3.329-7.107.7-2.453,4.195,3.785,1.577,5.372-2.19,4.766,2.383-.193,3.154,3.224,6.133,3.1,2.719,1.3,4.556,6.262-.126,4.191-1.622-1.465-7.38-3.273-2.677-.491,4.338,2.011,7.787,3.21,11.971,5.737,2.993,2.1,4.286,4.584,5.421,5.071-2.516,1.2-7.583-.96-3.855-1.623-2.348-.428-4.99-1.612-2.74,1.311,1.913,1.6,6.774,1.43,7.646,1.612-.7,1.626-2.008,1.752.028,1.882-2.271,1.212.729,1.4.939,2.092ZM50.989,75.751c-1.384-1.447-1.742-4.153-.245-1.8C51.515,74.261,53.2,78.379,50.989,75.751Zm15.139,9.567C66.99,85.261,66.152,85.973,66.128,85.317ZM48.816,72.159C48.76,69.972,49.314,73.841,48.816,72.159ZM47.31,70.137C45.568,66.773,49.5,71.083,47.31,70.137ZM29.08,57.521C30.1,57.248,29.585,59.266,29.08,57.521Zm14.508,7.864C44.219,63.026,44.289,67.361,43.588,65.385Zm-10.25-7.128C32.616,56.96,34.845,59.477,33.338,58.257ZM42.1,61.075c-1.647-3.69,1.17-2.015.368.6ZM26.932,50.961c-.7-1.212-1.952-4.766-1.559-5.852.35,1.766,3.757,7.6,1.668,2.453-2.306-4.345,2.758,1.409,3.28,2.5.245,1.076-1.423-.294-.294,2.236-2.061-2.881-1.216,1.591-3.091-1.3ZM22.247,47.73C22.439,44.913,23.319,49.658,22.247,47.73Zm2.11.729C25.362,46.335,26.059,51.42,24.356,48.459ZM19.24,44.6c-1.745-1.735-3.007-3.329.084-1.076,1.191.046-2.646-3.634.287-1.17,3.084.561,1.521,5.057-.368,2.243Zm2.663-.07C22.955,43.528,22.443,45.522,21.9,44.534Zm1.64.526C22,42.179,25.408,46.269,23.543,45.06Zm-3.259-3.112c-5.074-4.556,6.378,2.358.827.841Zm14.536,8.41c-2.2-1.314-.585-9.265.165-3.83,2.1-.69-.119,2.81,1.472,2.775-.245,2.208-.964,3-1.637,1.051ZM40.2,53.537C40.406,51.14,40.651,55.177,40.2,53.537Zm-.932-.925C39.509,51.588,39.285,53.817,39.264,52.612ZM21.35,40.462c-3.259-4.5,9.472,4.549,2.089,1.139C22.667,41.4,21.739,41.328,21.35,40.462ZM31.7,45.95C31.4,42.165,32.392,46.581,31.7,45.95ZM39.565,51C40.171,48.841,39.611,52.422,39.565,51ZM21.851,38.71c1.938-.414,8.06,3.4,2.435,1.051C23.666,39.074,22.338,39.386,21.851,38.71ZM38.482,47c.21-3.872,1.156-2.313.007.561ZM23.291,37.364c.792-1.156-2.1-5.232.414-1.461,1.051.862,3.143,1.444,1.332,1.808,2.856,2.523-.7.683-1.742-.35ZM37.659,45.8C38.2,41.38,38.139,48.378,37.659,45.8Zm-16.015-12.5C22.247,33.033,21.994,34.1,21.644,33.292Zm3.75,2.232C26.357,33.5,27.174,37.781,25.394,35.525ZM35.966,41.4C35.959,40.634,36.166,42.537,35.966,41.4Zm-.613-1.353C33.888,36.432,36.755,41.969,35.353,40.052Zm-.9-2.376C34.207,36.18,35.293,39.555,34.452,37.676Zm1.465-2.383c-1.009-1.773,1.272-7.815,1.528-4.065-1.062,2.923-.3,4.556.431.631,1.4-3.084-.294,6.087-1.962,3.434ZM37.424,26.3C37.862,25.762,37.522,26.95,37.424,26.3ZM34.9,75.887C34.305,75.362,34.978,76.217,34.9,75.887Zm5.186,2.621c2.884.743,2.874-.449.263-.806-1.4-1.3-5.824-2.688-1.864-.161.259.7,1.051.648,1.6.964Zm-10.233-6.8c1.587,1.191,5.982,3.357,2.264.456,1.255-1.458-2.4-2.236-1.191-3.21-3.084-1.892-2.435-1.752-.273-1.658-3.708-1.658.536-1.531.336-2.383-1.43-.28-7.1-2.523-3.764.182-3.392-1.728-.806.645-1.833.4-3.5-.946,3.084,2.642-.55,1.752,1.987,1.577,5.355,4.04.841,1.668-.6.855,3.231,2.155,4.205,2.8Zm5.421,3.154C41.864,76.988,32.041,72.271,35.276,74.864ZM63.03,91.678C63.114,90.367,62.129,92.8,63.03,91.678Zm2.852,1.2c1.521-1.472.063,2.348,2.523-.361.025-1.938-.07-3.084-2.824-.729-.76.421-1.1,2.208.3,1.051ZM20.6,64.432C20.134,62.6,17.327,62.6,20.6,64.432Zm3.049,2C22.517,64.554,19.611,64.73,23.648,66.429ZM40.981,76.882c1.693,1.507,7.773,1.1,2.054.186C42.193,75.817,37.662,76.122,40.981,76.882ZM64.8,91.6C67.407,89.414,62.28,92.575,64.8,91.6Zm5.418,3.722C70.238,94.621,69.1,95.627,70.221,95.322Zm.011-.981C73.115,91.292,67.438,94.516,70.231,94.341ZM13.108,58.159c-2.453-3.5-1.528-5.081-3.9-7.944-.449-2.19-4.065-7.159-1.871-1.892,2.011,3.084,2.607,7.85,5.768,9.812Zm56.209,35.2C74.626,89.936,67.144,91.87,69.317,93.363Zm4.051,1.587C76.031,92.673,71.685,94.474,73.368,94.951ZM19.7,60.559C20.456,59.428,17.733,60.412,19.7,60.559ZM72.523,93.868c2.572-1.658-.6-1.4-.466.151ZM37.613,71.861C37.526,70.739,36.253,71.955,37.613,71.861ZM39.768,73.1C39.081,71.714,38.717,73.319,39.768,73.1ZM76.651,94.986c3.294-2.383-2-.456-.69.456Zm-1.262-.61C78.077,92.126,72.586,95.371,75.39,94.376Zm6.448,4.293C83.639,97.463,79.647,98.318,81.837,98.669ZM21.353,59.736c2.453.54,9.654,5.95,5.386.375-2.187-.648-.876-5.957-3.108-5.046,1.5,2.5,1.227,3.567-1.913,1.99-3.949-1.927-2.218.953-1.447,1.752-1.051.245,1.391.911,1.051.932Zm-11-8.691c.431-1.752-3.984-9.812-2.085-4.037C8.948,48.224,8.878,50.53,10.35,51.045ZM30.555,63.5C29.308,62.462,30.5,63.356,30.555,63.5Zm3.063.715C33.618,62.326,30.233,63.447,33.618,64.218ZM60.17,80.954C59.662,79.658,58.173,80.926,60.17,80.954Zm1.276.932C61.257,81.161,60.745,82.027,61.446,81.887Zm10.523,6.63C73.021,87.77,70.708,88.419,71.969,88.517ZM15.841,52.454C18.735,51.333,12.74,51.655,15.841,52.454ZM57.822,78.9C57.787,77.03,55.976,79.371,57.822,78.9ZM14.695,49.819C16.552,49.188,12.943,49.405,14.695,49.819Zm5.4,2.614C20.057,51.816,19.52,52.668,20.092,52.433ZM85.93,92.8c2.39-.484,7.843,1.216,8.761-.631-2.909-.07-10.047-2.05-10.383.47l.631.105,1.027.063ZM21.809,52.832C21.851,50.933,20.33,52.762,21.809,52.832ZM7.616,43.02C6.971,39.4,5.163,42.474,7.616,43.02ZM11,43.872C11.04,42.708,7.9,42.828,11,43.872Zm1.934.946C12.372,44.363,12.5,45.389,12.932,44.818Zm12.17,7.8C25.677,52.1,23.747,52.272,25.1,52.622ZM11.646,42.67C11.317,39.937,7.721,42.26,11.646,42.67Zm-6.939-4.5C4.61,36.905,4.031,38.643,4.708,38.167Zm1.034-.778C5.573,35.893,4.855,37.578,5.741,37.389Zm5.7,3.4c2.411-.946-4.391-1.962-.491-.175ZM87.76,87.911C89.3,86.495,85.8,87.472,87.76,87.911Zm9.216,4.776C97.6,90.865,95.417,92.932,96.976,92.687ZM12.021,37.781C12.277,36.012,10.108,38.132,12.021,37.781ZM3.905,32.35c-.428-2.506-.4-6.886,3.8-5.407-5.561,1.107,3.855,6.918,2.663,2.327,2.341.116,4.577-1.384,3.347.887,4.615-.5,7.8-4.5,12.265-3.939,3.5-.463,7.261-.806,11-2.208,3.073-.221,6.027-3.529,4.345-5.491a47.625,47.625,0,0,0-13.211,1.093c-5.134,1.065-9.795,3.094-14.974,3.96-5.046.68,1.051,1.868-.431,2.1-2.628.911,3.143,1.528-.34,2.5-2.152-.41-4.391-1.149-3.5-3.417-4.836.631-9.087,2.635-5.263,7.555l.28,0Zm11.662-5.9c1.132-4.177,6.073,3.434,1.857.561A2.663,2.663,0,0,0,15.568,26.445Zm.221-2.025C17.425,23.2,16.657,25.1,15.788,24.419Zm2.078.035c.151-1.92,4.759,1.051.76.69Zm2.8-1.142C21.711,22.1,20.971,24.388,20.67,23.312Zm.729-.491c1.731-2.078,9.788-1.332,3.855-.2C23.676,21.427,22.461,23.319,21.4,22.822ZM31.912,21.2C31.652,15.522,37.14,23.214,31.912,21.2Zm2.986-.018c1.051-2.86,4.205-1.149.508-.575C35.486,20.912,35.293,22.086,34.9,21.182ZM10.812,36.345C14.071,34.347,7.353,34.614,10.812,36.345Zm2.411.7C14.366,35.83,10.77,36.555,13.223,37.046Zm-7.065-5.1C8.016,30.545,3.951,31.4,6.158,31.947Zm96.263,60.222C102.474,90.507,101,92.915,102.422,92.168ZM92.61,85.493C92.89,83.583,91.348,85.657,92.61,85.493Zm12.475,7.359c2.6.011,7.892-.806,2.225-.806C106.42,92.186,102.124,92.151,105.085,92.852ZM15.42,35.812c2.11-.14,3.294-2.323-.41-2.2-5.747-.6,5.067,1.969-.7,1.234-.778.515,1.1,1.107,1.146.964Zm1.857.939C17.057,35.4,16.626,37.47,17.278,36.751Zm2.208-5.873C20.4,29.743,18.224,30.573,19.485,30.878ZM12.477,19.16c3.764-1.279,8.908-2.716,10.688.631-1.808-2.173-.729-4.317.981-1.135C26.6,21.872,27.77,17.19,26.2,16.111c1.752,2.222,3.855,3.273,1.2.14,2.856-3.434-5.712.449-7.66.41-.936.421-9.672,2.229-7.254,2.5Zm2.208-4.223c2.145-1.619,7.422.964,4.037-1.612C18.388,13.034,11.31,15.277,14.684,14.937Zm7.822.322c2.509.063-1.051-3.375,1.906-1.815-.491-1.6-3.483-1.9-4.948-2.548-.827,1.465,1.682,4.38,3.038,4.363Zm-6.448-7.1C16.927,6.982,14.534,8.755,16.058,8.16Zm3.147.764c4.047-.536-1.03-1.742-.817-.042ZM13.234,4.263C10.385.541,18.6,4.886,15.7.993c-2.439-1.938-4.776,2.187-2.464,3.27ZM49.763,23.992c1.307-2.313-5.4-3.154-.876-.82C49.3,23.312,49.209,24.153,49.763,23.992Z" transform="translate(0 0)"/>
</svg>
