<svg id="github" xmlns="http://www.w3.org/2000/svg" width="98.818" height="100" viewBox="0 0 98.818 100">
  <path id="Path_62" data-name="Path 62" d="M49.409,0C22.123,0,0,22.952,0,51.261,0,73.914,14.156,93.125,33.791,99.9c2.471.471,3.372-1.114,3.372-2.466l-.071-9.543c-13.74,3.1-16.644-6.044-16.644-6.044-2.249-5.92-5.485-7.5-5.485-7.5-4.491-3.179.353-3.117.353-3.117,4.961.357,7.572,5.282,7.572,5.282,4.409,7.835,11.568,5.569,14.379,4.255A11.127,11.127,0,0,1,40.4,73.924C29.435,72.63,17.9,68.23,17.9,48.588a20.262,20.262,0,0,1,5.082-13.757c-.5-1.3-2.2-6.517.488-13.572,0,0,4.143-1.377,13.587,5.256a45.118,45.118,0,0,1,24.722.006c9.428-6.64,13.576-5.256,13.576-5.256,2.7,7.062,1,12.27.494,13.566a20.2,20.2,0,0,1,5.079,13.757c0,19.693-11.556,24.029-22.563,25.3,1.78,1.588,3.353,4.706,3.353,9.486l-.066,14.066c0,1.364.9,2.96,3.4,2.471,19.621-6.8,33.766-26.008,33.766-48.649C98.818,22.952,76.694,0,49.409,0Z" fill-rule="evenodd"/>
</svg>
