<svg id="google-chrome" xmlns="http://www.w3.org/2000/svg" width="100" height="100" viewBox="0 0 100 100">
  <g id="Group_17" data-name="Group 17">
    <ellipse id="Ellipse_13" data-name="Ellipse 13" cx="17.478" cy="17.504" rx="17.478" ry="17.504" transform="translate(32.456 32.488)" fill="#4c8cf5"/>
    <path id="Path_63" data-name="Path 63" d="M47.1,95.48l2.838-4.922L68.92,57.625,69.859,56l-.939,1.628a22.495,22.495,0,0,1-37.971,0q-.5-.789-.935-1.623l-19-32.955L8.154,18.081A50.388,50.388,0,0,0,5.663,68.77l2.081,3.611A49.781,49.781,0,0,0,47.1,95.48Z" transform="translate(0 4.52)" fill="#1ba261" fill-rule="evenodd"/>
    <path id="Path_64" data-name="Path 64" d="M6.469,22.578,9.308,27.5,28.3,60.4l.939,1.626L28.3,60.4A22.542,22.542,0,0,1,47.305,27.488q.936-.039,1.872,0l38.02-.009h5.726A50.248,50.248,0,0,0,50.315,0H46.149A49.849,49.849,0,0,0,6.469,22.578Z" transform="translate(1.617)" fill="#dd5044" fill-rule="evenodd"/>
    <path id="Path_65" data-name="Path 65" d="M85.181,21.98H79.5l-37.995-.008h0a22.542,22.542,0,0,1,19,32.918q-.434.83-.936,1.621l-19,32.93L37.71,94.4a50.256,50.256,0,0,0,45.1-23.16l2.082-3.609a49.847,49.847,0,0,0,.288-45.653Z" transform="translate(9.427 5.493)" fill="#ffce44" fill-rule="evenodd"/>
    <path id="Path_66" data-name="Path 66" d="M56.493,29.235,84.4,21.989H39.949a22.388,22.388,0,0,1,16.545,7.246Z" transform="translate(9.987 5.497)" fill="#f4c134" fill-rule="evenodd"/>
    <path id="Path_67" data-name="Path 67" d="M26.825,38.731,6.589,18.158l2.768,4.794,19.48,33.74A22.428,22.428,0,0,1,26.825,38.731Z" transform="translate(1.647 4.539)" fill="#cd483c" fill-rule="evenodd"/>
    <path id="Path_68" data-name="Path 68" d="M45.427,59.724l-7.7,27.811L40.5,82.741,59.976,49A22.424,22.424,0,0,1,45.427,59.724Z" transform="translate(9.432 12.25)" fill="#259860" fill-rule="evenodd"/>
  </g>
</svg>
