<svg id="google-cloud" xmlns="http://www.w3.org/2000/svg" width="124.32" height="100" viewBox="0 0 124.32 100">
  <g id="Group_18" data-name="Group 18" transform="translate(0 0)">
    <path id="Path_69" data-name="Path 69" d="M71.734,27.638l3.982.068,10.82-10.82.524-4.584A48.6,48.6,0,0,0,7.83,35.913c1.181-.824,3.706-.206,3.706-.206l21.62-3.555s1.111-1.84,1.674-1.748a26.932,26.932,0,0,1,36.9-2.787Z" transform="translate(7.38 0)" fill="#ea4335"/>
    <path id="Path_70" data-name="Path 70" d="M80.256,29.987A48.7,48.7,0,0,0,65.58,6.333L50.26,21.654A26.961,26.961,0,0,1,60.335,42.671v2.7a13.508,13.508,0,1,1,0,27.016H33.319l-2.7,2.72V91.323l2.7,2.69H60.335a35.1,35.1,0,0,0,19.92-64.025Z" transform="translate(28.855 5.969)" fill="#4285f4"/>
    <path id="Path_71" data-name="Path 71" d="M28.384,62.566h27V40.927h-27a13.386,13.386,0,0,1-5.562-1.209l-3.9,1.2L8.106,51.733l-.948,3.652a34.965,34.965,0,0,0,21.224,7.166Z" transform="translate(6.746 37.434)" fill="#34a853"/>
    <path id="Path_72" data-name="Path 72" d="M35.13,15.31A35.111,35.111,0,0,0,13.92,78.416L29.584,62.752A13.506,13.506,0,1,1,47.446,44.894L63.11,29.23A35.074,35.074,0,0,0,35.132,15.31Z" transform="translate(0 14.43)" fill="#fbbc05"/>
  </g>
</svg>
