<svg id="graphql" xmlns="http://www.w3.org/2000/svg" width="88.998" height="100" viewBox="0 0 88.998 100">
  <g id="Group_19" data-name="Group 19" transform="translate(0 0)">
    <path id="Path_73" data-name="Path 73" d="M6.5,75.039l-3.667-2.12L43.732,2.09,47.4,4.21Z" transform="translate(1.595 1.174)" fill="#e10098"/>
    <path id="Path_74" data-name="Path 74" d="M2.3,43.8h81.8v4.241H2.3Z" transform="translate(1.291 24.636)" fill="#e10098"/>
    <path id="Path_75" data-name="Path 75" d="M44.245,92.43,3.334,68.809l2.12-3.667L46.365,88.763ZM79.787,30.861,38.873,7.244l2.12-3.667L81.9,27.2Z" transform="translate(1.874 2.01)" fill="#e10098"/>
    <path id="Path_76" data-name="Path 76" d="M5.461,30.857l-2.12-3.667L44.289,3.562l2.12,3.667Z" transform="translate(1.878 2.002)" fill="#e10098"/>
    <path id="Path_77" data-name="Path 77" d="M78.449,75.041,37.548,4.205l3.667-2.12,40.9,70.835ZM4.373,25.206H8.614V72.448H4.373Zm71.1,0H79.71V72.448H75.469Z" transform="translate(2.459 1.171)" fill="#e10098"/>
    <path id="Path_78" data-name="Path 78" d="M29.722,67.842l-1.85-3.206L63.456,44.091l1.85,3.206Z" transform="translate(15.678 24.802)" fill="#e10098"/>
    <path id="Path_79" data-name="Path 79" d="M87.785,75a8.918,8.918,0,1,1-3.27-12.18A8.938,8.938,0,0,1,87.785,75M16.639,33.913a8.918,8.918,0,1,1-3.27-12.183,8.938,8.938,0,0,1,3.27,12.183M1.217,75a8.918,8.918,0,1,1,12.18,3.27A8.938,8.938,0,0,1,1.217,75M72.361,33.916a8.918,8.918,0,1,1,12.18,3.27,8.938,8.938,0,0,1-12.18-3.27M44.5,100a8.913,8.913,0,1,1,8.914-8.91A8.914,8.914,0,0,1,44.5,100m0-82.176a8.9,8.9,0,1,1,6.306-2.609A8.9,8.9,0,0,1,44.5,17.825" transform="translate(-0.001 -0.001)" fill="#e10098"/>
  </g>
</svg>
