<svg id="html5" xmlns="http://www.w3.org/2000/svg" width="88.178" height="100" viewBox="0 0 88.178 100">
  <g id="Group_20" data-name="Group 20">
    <path id="Path_80" data-name="Path 80" d="M8.025,90.006,0,0H88.178L80.146,89.993,44.033,100Z" fill="#e44d26"/>
    <path id="Path_81" data-name="Path 81" d="M57.4,81.612l6.866-76.9H28.216V89.7Z" transform="translate(15.873 2.65)" fill="#f16529"/>
    <path id="Path_82" data-name="Path 82" d="M38.145,11.774H10.5l2.978,33.382h24.7V34.118H23.575l-1.009-11.3H38.182V11.774Zm.038,50.977-.047.013L25.841,59.444l-.781-8.8H13.972l1.547,17.332,22.613,6.25.05-.016Z" transform="translate(5.907 6.623)" fill="#ebebeb"/>
    <path id="Path_83" data-name="Path 83" d="M28.194,45.156H41.788l-1.25,14.313L28.226,62.791V74.276L50.857,68l3.031-33.892H28.232Zm27.388-30.42.263-2.963H28.188V22.812H54.851l.219-2.481Z" transform="translate(15.857 6.623)" fill="#fff"/>
  </g>
</svg>
