<svg id="illustrator" xmlns="http://www.w3.org/2000/svg" width="102.564" height="100" viewBox="0 0 102.564 100">
  <path id="Path_252" data-name="Path 252" d="M18.162,0H84.4a18.147,18.147,0,0,1,18.162,18.162V81.838A18.147,18.147,0,0,1,84.4,100H18.162A18.147,18.147,0,0,1,0,81.838V18.162A18.147,18.147,0,0,1,18.162,0Z" fill="#300"/>
  <g id="Group_55" data-name="Group 55" transform="translate(21.064 22.179)">
    <path id="Path_253" data-name="Path 253" d="M77.8,89.55H61.9L58.654,99.592a.748.748,0,0,1-.812.6H49.807c-.47,0-.6-.256-.47-.769L63.1,59.806c.128-.427.256-.9.427-1.41a14.927,14.927,0,0,0,.256-2.778.423.423,0,0,1,.342-.47H75.192c.342,0,.513.128.556.342l15.6,44.017c.128.47,0,.684-.427.684H81.987a.645.645,0,0,1-.684-.47ZM64.38,80.874H75.235c-.256-.9-.6-1.966-.983-3.077-.385-1.154-.769-2.393-1.154-3.675-.427-1.325-.812-2.607-1.239-3.932s-.812-2.564-1.154-3.8c-.342-1.2-.641-2.308-.94-3.333h-.085a52.471,52.471,0,0,1-1.453,5.513c-.641,2.051-1.282,4.188-1.966,6.325C65.662,77.071,65.021,79.079,64.38,80.874Zm36.5-18.248a5.289,5.289,0,0,1-3.8-1.5A5.552,5.552,0,0,1,95.619,57.2a5.028,5.028,0,0,1,1.538-3.8,5.473,5.473,0,0,1,3.8-1.5,5.117,5.117,0,0,1,3.889,1.5,5.875,5.875,0,0,1-.085,7.735,5.025,5.025,0,0,1-3.889,1.5ZM96.089,99.721V66.815c0-.427.171-.6.556-.6h8.462c.385,0,.556.214.556.6V99.721c0,.47-.171.684-.556.684H96.73A.6.6,0,0,1,96.089,99.721Z" transform="translate(-49.29 -51.9)" fill="#ff9a00"/>
  </g>
</svg>
