<svg id="javascript" xmlns="http://www.w3.org/2000/svg" width="100" height="100" viewBox="0 0 100 100">
  <g id="Group_21" data-name="Group 21">
    <path id="Path_84" data-name="Path 84" d="M0,0H100V100H0Z" fill="#f7df1e" fill-rule="evenodd"/>
    <path id="Path_85" data-name="Path 85" d="M39.75,69.735v-32.5H48.5v32.5c0,12.5-17.5,20-27.5,5l7.5-5C32.25,77.235,39.75,74.735,39.75,69.735Zm37.5-21.25c-5-6.875-11.25-3.75-11.25.625,0,6.875,20.625,5.625,20.625,20.625-.625,17.5-25,16.875-32.5,3.75l7.5-4.375c5.625,8.75,15.625,5.625,15.625.625-.625-8.75-20-4.375-20-20.625-.625-12.5,18.125-19.375,26.875-5L77.25,48.485" transform="translate(5.25 9.015)" fill="#323232" fill-rule="evenodd"/>
  </g>
</svg>
