<svg id="kubernetes" xmlns="http://www.w3.org/2000/svg" width="103.074" height="100" viewBox="0 0 103.074 100">
  <g id="Group_22" data-name="Group 22" transform="translate(0 0)">
    <path id="Path_86" data-name="Path 86" d="M51.207.006a6.892,6.892,0,0,0-2.65.7L12.665,17.8a6.8,6.8,0,0,0-3.7,4.612L.176,60.863a6.634,6.634,0,0,0,.966,5.24q.184.28.386.541l24.8,30.832A6.86,6.86,0,0,0,31.678,100H71.45a6.973,6.973,0,0,0,5.359-2.554l24.784-30.839a6.621,6.621,0,0,0,1.288-5.752L94.038,22.4a6.816,6.816,0,0,0-3.7-4.612L54.5.711A6.892,6.892,0,0,0,51.174.006Z" transform="translate(0 -0.001)" fill="#326ce5"/>
    <path id="Path_87" data-name="Path 87" d="M46.319,8.135a2.27,2.27,0,0,0-2.109,2.383v.605a18.125,18.125,0,0,0,.3,2.039,19.97,19.97,0,0,1,.213,3.9,2.351,2.351,0,0,1-.7,1.111l-.048.908a28.082,28.082,0,0,0-3.874.6,27.583,27.583,0,0,0-14.022,8l-.773-.547A1.667,1.667,0,0,1,24.027,27a20.031,20.031,0,0,1-2.889-2.609,17.916,17.916,0,0,0-1.407-1.5l-.477-.38a2.576,2.576,0,0,0-1.491-.564,2.061,2.061,0,0,0-1.71.76,2.27,2.27,0,0,0,.528,3.166l.444.322a17.981,17.981,0,0,0,1.778,1.04A18.483,18.483,0,0,1,22.018,29.5a2.383,2.383,0,0,1,.428,1.237l.7.644a27.76,27.76,0,0,0-4.373,19.342l-.9.258a2.947,2.947,0,0,1-.921.927,19.928,19.928,0,0,1-3.845.634,18.012,18.012,0,0,0-2.061.161l-.57.129h-.064A2.152,2.152,0,1,0,11.368,57h.042l.58-.064a17.216,17.216,0,0,0,1.926-.7,20.107,20.107,0,0,1,3.742-1.095,2.351,2.351,0,0,1,1.23.435l.966-.161A27.9,27.9,0,0,0,32.22,70.885l-.393.821a2.148,2.148,0,0,1,.193,1.211,20.793,20.793,0,0,1-1.942,3.517,17.971,17.971,0,0,0-1.153,1.716l-.274.58a2.151,2.151,0,1,0,3.874,1.832l.267-.547a19.7,19.7,0,0,0,.618-1.932c.57-1.407.879-2.918,1.659-3.852a1.739,1.739,0,0,1,.921-.451l.483-.879a27.76,27.76,0,0,0,19.793.048l.428.821a1.675,1.675,0,0,1,1.095.66,20.272,20.272,0,0,1,1.469,3.607,17.9,17.9,0,0,0,.625,1.968l.267.547a2.152,2.152,0,1,0,3.874-1.836l-.28-.58a17.955,17.955,0,0,0-1.153-1.71,22.816,22.816,0,0,1-1.932-3.4,1.675,1.675,0,0,1,.219-1.288,7.537,7.537,0,0,1-.357-.866A27.937,27.937,0,0,0,72.833,55.346l.915.161a1.707,1.707,0,0,1,1.2-.444,23.411,23.411,0,0,1,3.742,1.095,12.1,12.1,0,0,0,1.926.741c.155.042.38.077.554.119h.042a2.152,2.152,0,1,0,.956-4.177l-.625-.148a18.014,18.014,0,0,0-2.061-.161,19.643,19.643,0,0,1-3.845-.634,2.415,2.415,0,0,1-.927-.927l-.87-.258a27.857,27.857,0,0,0-4.464-19.3l.76-.7a1.7,1.7,0,0,1,.4-1.217,20.241,20.241,0,0,1,3.188-2.241,17.918,17.918,0,0,0,1.778-1.04l.47-.38a2.158,2.158,0,1,0-2.67-3.352l-.477.38a17.955,17.955,0,0,0-1.407,1.5,20.086,20.086,0,0,1-2.811,2.65,2.383,2.383,0,0,1-1.3.142l-.815.58a28.135,28.135,0,0,0-17.825-8.6c0-.322-.042-.805-.048-.956a1.691,1.691,0,0,1-.7-1.069,20.007,20.007,0,0,1,.245-3.887,17.158,17.158,0,0,0,.3-2.039v-.644a2.27,2.27,0,0,0-2.109-2.383ZM43.633,24.772l-.644,11.249h-.048a1.94,1.94,0,0,1-1.069,1.623,1.82,1.82,0,0,1-1.932-.174l-9.227-6.537A22.092,22.092,0,0,1,41.35,25.139a22.79,22.79,0,0,1,2.277-.367Zm5.372,0a22.482,22.482,0,0,1,12.882,6.2l-9.14,6.5a1.9,1.9,0,0,1-3.072-1.456ZM27.364,35.164,35.8,42.693v.048a1.9,1.9,0,0,1-.744,3.249v.032L24.23,49.137a22.092,22.092,0,0,1,3.137-13.977Zm37.85,0A22.479,22.479,0,0,1,68.44,49.1L57.6,45.975v-.042a1.868,1.868,0,0,1-1.343-1.4,1.9,1.9,0,0,1,.6-1.849l8.373-7.494ZM44.59,43.28h3.452l2.109,2.679-.766,3.349-3.1,1.491-3.108-1.491-.731-3.349Zm11.059,9.14a1.955,1.955,0,0,1,.435,0L67.249,54.3a21.951,21.951,0,0,1-8.937,11.249L54,55.1a1.9,1.9,0,0,1,1.639-2.638ZM36.9,52.467a1.891,1.891,0,0,1,1.71,2.634v.042l-4.29,10.363a22.157,22.157,0,0,1-8.882-11.133L36.5,52.5a1.811,1.811,0,0,1,.374,0Zm9.352,4.509a1.9,1.9,0,0,1,1.729.992h.042l5.455,9.845-2.18.644a22.2,22.2,0,0,1-12.1-.625l5.475-9.845a1.9,1.9,0,0,1,1.61-.95Z" transform="translate(5.218 4.963)" fill="#fff"/>
    <path id="Path_87_-_Outline" data-name="Path 87 - Outline" d="M46.353,8.08a.088.088,0,0,1,.043.011l.012.007a2.37,2.37,0,0,1,2.172,2.475v.639a17.274,17.274,0,0,1-.3,2.057,19.969,19.969,0,0,0-.243,3.858,1.593,1.593,0,0,0,.664,1.006.088.088,0,0,1,.038.069c0,.044.007.117.013.206.013.2.031.457.035.674a28.21,28.21,0,0,1,17.748,8.563l.752-.535a.089.089,0,0,1,.066-.015,2.3,2.3,0,0,0,1.241-.132,20.061,20.061,0,0,0,2.789-2.631,18.1,18.1,0,0,1,1.413-1.5l.478-.382a2.246,2.246,0,1,1,2.78,3.491l-.466.377-.007,0A18.089,18.089,0,0,1,73.8,27.364a20.2,20.2,0,0,0-3.165,2.225,1.617,1.617,0,0,0-.374,1.148.089.089,0,0,1-.028.071l-.7.651a27.916,27.916,0,0,1,4.446,19.223l.8.236a.089.089,0,0,1,.052.042,2.326,2.326,0,0,0,.884.888,19.6,19.6,0,0,0,3.817.629,18.123,18.123,0,0,1,2.067.162l.008,0,.621.147a2.234,2.234,0,0,1,1.288,3.79,2.246,2.246,0,0,1-2.275.563H81.2l-.021,0c-.077-.019-.164-.036-.25-.053-.107-.021-.218-.043-.306-.067a12.225,12.225,0,0,1-1.939-.745,23.39,23.39,0,0,0-3.716-1.088,1.616,1.616,0,0,0-1.131.422.089.089,0,0,1-.075.022l-.838-.148A28,28,0,0,1,60.663,70.942a7.45,7.45,0,0,0,.33.788.089.089,0,0,1,0,.087,1.6,1.6,0,0,0-.209,1.212A22.8,22.8,0,0,0,62.7,76.411a18.068,18.068,0,0,1,1.156,1.715l.284.586A2.233,2.233,0,0,1,62.2,82.071a2.262,2.262,0,0,1-.247-.014A2.236,2.236,0,0,1,60.1,80.621l-.265-.544a18.034,18.034,0,0,1-.631-1.985,20.229,20.229,0,0,0-1.458-3.582,1.576,1.576,0,0,0-1.033-.62.089.089,0,0,1-.065-.047l-.392-.752a27.849,27.849,0,0,1-19.71-.049l-.446.812a.088.088,0,0,1-.064.045,1.644,1.644,0,0,0-.87.424A8.029,8.029,0,0,0,34,76.837c-.146.43-.3.874-.473,1.307a19.724,19.724,0,0,1-.62,1.936l0,.007-.265.544a2.236,2.236,0,0,1-1.852,1.444,2.265,2.265,0,0,1-.234.012,2.246,2.246,0,0,1-1.946-3.368l.27-.573,0-.007a18.129,18.129,0,0,1,1.159-1.725,20.743,20.743,0,0,0,1.926-3.487,2.06,2.06,0,0,0-.187-1.149.089.089,0,0,1,0-.076l.358-.748a27.962,27.962,0,0,1-12.312-15.4l-.891.148a.089.089,0,0,1-.066-.015,2.259,2.259,0,0,0-1.173-.418,20.066,20.066,0,0,0-3.715,1.088,17.35,17.35,0,0,1-1.933.7l-.016,0-.58.064h-.038a2.24,2.24,0,1,1-.983-4.353H10.5l.56-.127a18.118,18.118,0,0,1,2.079-.163,19.879,19.879,0,0,0,3.811-.628,2.876,2.876,0,0,0,.882-.892.089.089,0,0,1,.051-.038l.827-.236a27.808,27.808,0,0,1,4.356-19.264l-.646-.593a.089.089,0,0,1-.029-.06,2.292,2.292,0,0,0-.406-1.182,18.423,18.423,0,0,0-3.19-2.236,18.113,18.113,0,0,1-1.784-1.044l-.447-.324a2.362,2.362,0,0,1-.548-3.289,2.142,2.142,0,0,1,1.787-.8,2.648,2.648,0,0,1,1.542.583l.476.38a18.026,18.026,0,0,1,1.42,1.51,19.986,19.986,0,0,0,2.868,2.59,1.593,1.593,0,0,0,1.2.119.089.089,0,0,1,.077.012l.71.5a27.571,27.571,0,0,1,14.014-7.972,28.267,28.267,0,0,1,3.809-.594l.044-.831a.088.088,0,0,1,.03-.062,2.259,2.259,0,0,0,.673-1.059,19.923,19.923,0,0,0-.212-3.869,18.233,18.233,0,0,1-.3-2.044v-.613A2.369,2.369,0,0,1,46.347,8.08Zm2.213,10.174a1.769,1.769,0,0,1-.7-1.1.087.087,0,0,1,0-.014,20.149,20.149,0,0,1,.246-3.9,17.162,17.162,0,0,0,.3-2.032v-.636a2.193,2.193,0,0,0-2.027-2.295.089.089,0,0,1-.037-.011l-.006,0a2.193,2.193,0,0,0-2,2.288v.61a18.151,18.151,0,0,0,.295,2.021,20.1,20.1,0,0,1,.214,3.918.088.088,0,0,1,0,.021,2.435,2.435,0,0,1-.7,1.128l-.046.872a.089.089,0,0,1-.081.084,28.091,28.091,0,0,0-3.862.6,27.4,27.4,0,0,0-13.977,7.977.089.089,0,0,1-.116.012l-.738-.523a1.773,1.773,0,0,1-1.3-.148l-.011-.007a20.168,20.168,0,0,1-2.9-2.62A17.924,17.924,0,0,0,19.7,23l-.471-.375a2.472,2.472,0,0,0-1.44-.544l-.105,0a1.964,1.964,0,0,0-1.532.73,2.184,2.184,0,0,0,.511,3.038l.445.322A17.957,17.957,0,0,0,18.878,27.2a18.6,18.6,0,0,1,3.232,2.266.088.088,0,0,1,.014.016,2.469,2.469,0,0,1,.442,1.246l.676.62a.089.089,0,0,1,.014.114A27.634,27.634,0,0,0,18.9,50.74a.089.089,0,0,1-.063.1l-.869.248a3.054,3.054,0,0,1-.93.926.089.089,0,0,1-.025.011,20.062,20.062,0,0,1-3.862.637,18.016,18.016,0,0,0-2.055.16l-.562.127-.02,0h-.058a2.069,2.069,0,0,0-1.189,3.5,2.069,2.069,0,0,0,2.112.509.088.088,0,0,1,.028,0h.037l.567-.063a17.194,17.194,0,0,0,1.908-.7,20.244,20.244,0,0,1,3.761-1.1H17.7a2.436,2.436,0,0,1,1.246.43l.93-.155a.088.088,0,0,1,.1.06A27.784,27.784,0,0,0,32.3,70.842a.089.089,0,0,1,.035.114l-.375.783a2.236,2.236,0,0,1,.183,1.222.089.089,0,0,1-.007.024,20.922,20.922,0,0,1-1.95,3.532,17.986,17.986,0,0,0-1.148,1.708l-.272.576a2.063,2.063,0,1,0,3.711,1.764l0-.008.265-.544a19.557,19.557,0,0,0,.614-1.92l0-.011c.174-.43.325-.874.471-1.3a8.121,8.121,0,0,1,1.2-2.572l.007-.008a1.82,1.82,0,0,1,.925-.466l.462-.842a.089.089,0,0,1,.109-.04,27.672,27.672,0,0,0,19.73.048.089.089,0,0,1,.11.042l.408.782a1.751,1.751,0,0,1,1.108.688l.007.012a20.411,20.411,0,0,1,1.475,3.623A17.93,17.93,0,0,0,60,80.007l.264.54,0,.008a2.06,2.06,0,0,0,1.709,1.326,2.084,2.084,0,0,0,.227.013,2.056,2.056,0,0,0,1.779-3.1L63.7,78.21a17.97,17.97,0,0,0-1.144-1.695,22.974,22.974,0,0,1-1.942-3.421.089.089,0,0,1-.006-.017,1.773,1.773,0,0,1,.2-1.314,7.668,7.668,0,0,1-.34-.832.089.089,0,0,1,.038-.1A27.825,27.825,0,0,0,72.783,55.353a.089.089,0,0,1,.1-.06l.872.154a1.79,1.79,0,0,1,1.231-.438l.015,0a23.569,23.569,0,0,1,3.756,1.1l.009,0a12.042,12.042,0,0,0,1.912.735c.079.021.186.043.29.063.084.017.17.034.247.052h.031a.089.089,0,0,1,.027,0,2.063,2.063,0,1,0,.917-4l-.009,0-.621-.147a17.98,17.98,0,0,0-2.047-.16,19.779,19.779,0,0,1-3.866-.637l-.02-.008a2.5,2.5,0,0,1-.944-.93l-.835-.247a.089.089,0,0,1-.063-.1A27.74,27.74,0,0,0,69.338,31.5a.089.089,0,0,1,.013-.114l.729-.674a1.8,1.8,0,0,1,.423-1.238l.01-.01a20.377,20.377,0,0,1,3.2-2.251,17.943,17.943,0,0,0,1.769-1.035l.467-.377.009-.006a2.069,2.069,0,1,0-2.56-3.215l-.008.007-.477.38a17.976,17.976,0,0,0-1.395,1.485A20.243,20.243,0,0,1,68.7,27.11a.088.088,0,0,1-.021.012,2.474,2.474,0,0,1-1.313.153l-.785.559a.089.089,0,0,1-.115-.011,28.034,28.034,0,0,0-17.769-8.571.089.089,0,0,1-.081-.088c0-.224-.02-.524-.035-.743C48.573,18.355,48.569,18.3,48.566,18.254Zm.473,6.463h.011a22.393,22.393,0,0,1,6.965,2.051,22.706,22.706,0,0,1,5.968,4.17.089.089,0,0,1-.01.136l-9.14,6.5a1.994,1.994,0,0,1-1.224.421,1.989,1.989,0,0,1-1.988-1.947l-.67-11.233a.089.089,0,0,1,.088-.094Zm12.743,6.274a22.238,22.238,0,0,0-12.649-6.084l.664,11.13a1.812,1.812,0,0,0,2.929,1.391ZM43.661,24.717a.1.1,0,0,1,.068.028.091.091,0,0,1,.027.066l-.644,11.249a.089.089,0,0,1-.053.076,2.045,2.045,0,0,1-1.111,1.62,1.789,1.789,0,0,1-.851.212,2.014,2.014,0,0,1-1.175-.392L30.7,31.038a.089.089,0,0,1-.011-.135,22.162,22.162,0,0,1,10.68-5.817,22.97,22.97,0,0,1,2.287-.369Zm-.722,11.256L43.573,24.9c-.725.082-1.455.2-2.17.355a21.984,21.984,0,0,0-10.518,5.7l9.14,6.476a1.836,1.836,0,0,0,1.072.359,1.613,1.613,0,0,0,.767-.191,1.862,1.862,0,0,0,1.022-1.549A.089.089,0,0,1,42.939,35.973ZM27.4,35.108a.086.086,0,0,1,.054.018.094.094,0,0,1,.018.019l8.422,7.515a.089.089,0,0,1,.03.066v.009a1.989,1.989,0,0,1-.752,3.357.089.089,0,0,1-.056.049L24.289,49.256a.089.089,0,0,1-.113-.075,22.288,22.288,0,0,1,3.141-14.019.086.086,0,0,1,.018-.027A.093.093,0,0,1,27.4,35.108Zm8.346,7.659-8.328-7.432a22.113,22.113,0,0,0-3.078,13.722l10.67-3.069a.089.089,0,0,1,.056-.048,1.811,1.811,0,0,0,.709-3.1.089.089,0,0,1-.03-.066Zm29.5-7.658a.089.089,0,0,1,.076.042,22.7,22.7,0,0,1,3.24,13.99.089.089,0,0,1-.113.077L57.607,46.094a.089.089,0,0,1-.06-.059,1.949,1.949,0,0,1-1.345-1.45,1.987,1.987,0,0,1,.627-1.934l8.33-7.455a.089.089,0,0,1,.088-.086ZM68.4,49.018a22.526,22.526,0,0,0-3.154-13.659l-8.3,7.425a1.81,1.81,0,0,0-.572,1.763,1.773,1.773,0,0,0,1.279,1.335.089.089,0,0,1,.062.06ZM44.624,43.225h3.452a.089.089,0,0,1,.07.034l2.109,2.679a.089.089,0,0,1,.017.075l-.766,3.349a.088.088,0,0,1-.048.06l-3.1,1.491a.089.089,0,0,1-.077,0l-3.108-1.491a.089.089,0,0,1-.048-.061l-.731-3.349a.089.089,0,0,1,.017-.074l2.145-2.679A.089.089,0,0,1,44.624,43.225Zm3.409.177H44.666l-2.092,2.613.713,3.266,3.03,1.454,3.025-1.454.748-3.266Zm7.879,8.95a1.6,1.6,0,0,1,.218.013L67.3,54.249a.089.089,0,0,1,.069.116A22.094,22.094,0,0,1,58.394,65.66a.089.089,0,0,1-.13-.041L53.949,55.172A1.989,1.989,0,0,1,55.6,52.417a.089.089,0,0,1,.071-.053A2.206,2.206,0,0,1,55.912,52.352Zm11.252,2.054L56.1,52.54a1.883,1.883,0,0,0-.351,0,.089.089,0,0,1-.077.054A1.811,1.811,0,0,0,54.112,55.1l4.275,10.35A21.918,21.918,0,0,0,67.164,54.406ZM36.93,52.412h0a1.98,1.98,0,0,1,1.8,2.741v.024a.088.088,0,0,1-.007.034l-4.29,10.363a.089.089,0,0,1-.13.041,22.364,22.364,0,0,1-8.917-11.178.089.089,0,0,1,.069-.117l11.069-1.878a1.863,1.863,0,0,1,.346-.005A.089.089,0,0,1,36.93,52.412Zm1.621,2.747v-.024a.089.089,0,0,1,.007-.035,1.8,1.8,0,0,0-1.584-2.509.089.089,0,0,1-.073.027,1.73,1.73,0,0,0-.355,0L25.588,54.477a22.19,22.19,0,0,0,8.721,10.932Zm7.791,1.761a1.987,1.987,0,0,1,1.721.993.089.089,0,0,1,.067.045L53.586,67.8a.089.089,0,0,1-.052.128l-2.18.644A22.291,22.291,0,0,1,39.2,67.949a.089.089,0,0,1-.049-.127l5.475-9.845a2,2,0,0,1,1.573-.99.089.089,0,0,1,.083-.067ZM48,58.089a.089.089,0,0,1-.067-.046A1.81,1.81,0,0,0,46.4,57.1a.089.089,0,0,1-.083.061,1.821,1.821,0,0,0-1.535.906l-5.422,9.751a22.116,22.116,0,0,0,11.954.588l2.069-.611Z" transform="translate(5.184 4.93)" fill="#fff"/>
  </g>
</svg>
