<svg id="mongodb" xmlns="http://www.w3.org/2000/svg" width="44.916" height="100" viewBox="0 0 44.916 100">
  <g id="Group_23" data-name="Group 23" transform="translate(0 0)">
    <path id="Path_89" data-name="Path 89" d="M17.731.218,20.4,5.23a14.975,14.975,0,0,0,2.015,2.506,70.027,70.027,0,0,1,6.262,7.081,61.212,61.212,0,0,1,9.749,19.661,48.318,48.318,0,0,1,2.069,13.342A47.088,47.088,0,0,1,26.746,82.568a39.676,39.676,0,0,1-4.906,4.194c-.925,0-1.362-.709-1.744-1.362a11.2,11.2,0,0,1-1.362-3.921,18.974,18.974,0,0,1-.437-4.956V75.76c-.075-.194-.89-75.187-.566-75.54Z" transform="translate(4.413 0.054)" fill="#599636"/>
    <path id="Path_90" data-name="Path 90" d="M22.145.107c-.109-.219-.219-.052-.327.052a5.036,5.036,0,0,1-.925,3,13.3,13.3,0,0,1-2.4,2.4A52.194,52.194,0,0,0,6.787,20.481a59.94,59.94,0,0,0-6.75,24.4c-.271,3.1.981,14.052,1.959,17.211A52.177,52.177,0,0,0,15.667,83.6a54.722,54.722,0,0,0,4.844,4.14c.49,0,.544-.437.625-.762a14.95,14.95,0,0,0,.49-2.125l1.094-8.169L22.145.106Z" transform="translate(0 0)" fill="#6cac48"/>
    <path id="Path_91" data-name="Path 91" d="M20.711,75.1a7.437,7.437,0,0,1,1.362-3.321,3.606,3.606,0,0,1-1.525-1.415,10.148,10.148,0,0,1-.812-1.8,31.1,31.1,0,0,1-1.144-7.025V60.13a6.805,6.805,0,0,0-.327,2.344,54.126,54.126,0,0,1-.981,7.352,6.537,6.537,0,0,1-.875,2.831,1.1,1.1,0,0,0,.052.381,32.493,32.493,0,0,1,1.415,8.824v1.094c0,1.306-.053,1.031,1.031,1.469a4.778,4.778,0,0,1,1.362.544c.327,0,.381-.271.381-.49l-.163-1.8V77.67a13.256,13.256,0,0,1,.219-2.562Z" transform="translate(4.102 15.032)" fill="#c2bfbf"/>
  </g>
</svg>
