<svg xmlns="http://www.w3.org/2000/svg" width="101.872" height="100" viewBox="0 0 101.872 100">
  <g id="mysql" transform="translate(-0.024 0)">
    <path id="Path_254" data-name="Path 254" d="M93.859,77.343c-5.543-.138-9.839.416-13.441,1.94-1.039.415-2.7.416-2.841,1.732.554.554.624,1.455,1.109,2.217a16.243,16.243,0,0,0,3.6,4.227c1.455,1.108,2.91,2.217,4.434,3.187,2.7,1.663,5.751,2.633,8.384,4.3,1.525.969,3.048,2.217,4.573,3.256.762.554,1.247,1.455,2.217,1.8v-.207c-.485-.624-.624-1.524-1.109-2.217-.692-.693-1.386-1.317-2.079-2.01a32.864,32.864,0,0,0-7.205-7c-2.217-1.524-7.068-3.6-7.968-6.167l-.139-.138a28.177,28.177,0,0,0,4.781-1.109c2.356-.624,4.5-.485,6.929-1.109,1.108-.277,2.217-.624,3.325-.97v-.623c-1.246-1.247-2.147-2.91-3.464-4.088a92.381,92.381,0,0,0-11.432-8.522c-2.148-1.386-4.92-2.287-7.206-3.464-.831-.416-2.217-.624-2.7-1.317a27.946,27.946,0,0,1-2.841-5.335c-2.009-3.811-3.949-8.037-5.682-12.056-1.246-2.7-2.009-5.4-3.533-7.9-7.136-11.779-14.9-18.915-26.814-25.914C32.195,8.4,29.146,7.78,25.89,7.018c-1.732-.07-3.464-.208-5.2-.278-1.109-.485-2.217-1.8-3.188-2.425C13.557,1.821,3.371-3.583.461,3.554c-1.871,4.5,2.772,8.937,4.365,11.224a32.636,32.636,0,0,1,3.534,5.2c.485,1.177.623,2.425,1.108,3.672a83.19,83.19,0,0,0,3.6,9.285,33.5,33.5,0,0,0,2.563,4.3c.554.762,1.524,1.109,1.732,2.356-.97,1.386-1.039,3.465-1.594,5.2-2.494,7.829-1.524,17.529,2.01,23.28,1.108,1.732,3.741,5.544,7.275,4.088,3.118-1.247,2.425-5.2,3.325-8.661.209-.832.07-1.386.485-1.94v.139c.97,1.939,1.94,3.811,2.841,5.751a39.567,39.567,0,0,0,9.007,9.285c1.663,1.246,2.98,3.395,5.058,4.157v-.208h-.139a7.661,7.661,0,0,0-1.593-1.386,33.592,33.592,0,0,1-3.6-4.157,89.15,89.15,0,0,1-7.76-12.61c-1.108-2.147-2.079-4.5-2.979-6.651-.416-.832-.416-2.079-1.109-2.494-1.039,1.524-2.563,2.841-3.326,4.711-1.316,2.979-1.455,6.651-1.94,10.462-.277.07-.139,0-.278.139-2.217-.555-2.979-2.841-3.811-4.781-2.079-4.919-2.425-12.818-.623-18.5.485-1.455,2.564-6.028,1.732-7.414-.416-1.317-1.8-2.079-2.564-3.118a27.916,27.916,0,0,1-2.494-4.434c-1.663-3.88-2.495-8.176-4.3-12.056a36.877,36.877,0,0,0-3.464-5.335c-1.316-1.871-2.771-3.188-3.811-5.4C3.372,6.88,2.886,5.632,3.441,4.8a1.1,1.1,0,0,1,.97-.9c.9-.763,3.465.207,4.365.623a35.316,35.316,0,0,1,6.86,3.464c.97.693,2.009,2.01,3.256,2.356h1.455c2.217.485,4.711.139,6.79.762a44.278,44.278,0,0,1,9.978,4.781,61.47,61.47,0,0,1,21.617,23.7c.832,1.593,1.178,3.049,1.94,4.711,1.456,3.4,3.257,6.86,4.711,10.185,1.455,3.256,2.841,6.582,4.919,9.285,1.039,1.454,5.2,2.217,7.067,2.979a49.138,49.138,0,0,1,4.781,1.94c2.356,1.454,4.711,3.118,6.929,4.711,1.109.832,4.573,2.564,4.781,3.949Z" transform="translate(0 0)" fill="#00546b"/>
    <path id="Path_255" data-name="Path 255" d="M53.894,43.022a10.979,10.979,0,0,0-2.84.347v.139h.139a22.327,22.327,0,0,0,2.217,2.841c.555,1.108,1.039,2.217,1.594,3.326l.138-.139A3.909,3.909,0,0,0,56.6,46.071a15.514,15.514,0,0,1-.832-1.455C55.35,43.923,54.449,43.577,53.894,43.022Z" transform="translate(-30.708 -25.889)" fill="#00546b"/>
  </g>
</svg>
