<svg xmlns="http://www.w3.org/2000/svg" width="99.985" height="100" viewBox="0 0 99.985 100">
  <g id="nextjs" transform="translate(-0.5 -0.325)">
    <path id="Path_256" data-name="Path 256" d="M47.218.351c-.215.02-.9.088-1.515.137A50.112,50.112,0,0,0,9.775,21.209,49.492,49.492,0,0,0,.95,43.053,38.27,38.27,0,0,0,.5,50.334a38.27,38.27,0,0,0,.45,7.281,50.2,50.2,0,0,0,34.2,40.395A52.855,52.855,0,0,0,45.7,100.2a92.089,92.089,0,0,0,9.578,0,50.476,50.476,0,0,0,18.013-5.268c.86-.44,1.026-.557.909-.655-.078-.059-3.743-4.975-8.142-10.917l-7.995-10.8L48.049,57.733C42.537,49.582,38,42.916,37.963,42.916s-.078,6.578-.1,14.622c-.029,14.084-.039,14.651-.215,14.983a1.776,1.776,0,0,1-.86.889c-.313.156-.586.186-2.062.186H33.037l-.45-.283a1.828,1.828,0,0,1-.655-.713l-.205-.44.02-19.6.029-19.606.3-.381a2.681,2.681,0,0,1,.723-.6c.4-.2.557-.215,2.248-.215,1.994,0,2.326.078,2.844.645.147.156,5.571,8.327,12.061,18.169S65.319,73.86,69.678,80.457L77.6,92.449l.4-.264a51.321,51.321,0,0,0,10.272-9.011,49.771,49.771,0,0,0,11.768-25.558,38.269,38.269,0,0,0,.45-7.281,38.269,38.269,0,0,0-.45-7.281,50.2,50.2,0,0,0-34.2-40.395A52.487,52.487,0,0,0,55.428.479c-.938-.1-7.4-.205-8.21-.127Zm20.466,30.24a1.972,1.972,0,0,1,.987,1.153c.078.254.1,5.688.078,17.935l-.029,17.573-3.1-4.75-3.108-4.75V44.978c0-8.259.039-12.9.1-13.126a1.994,1.994,0,0,1,.968-1.231c.4-.205.547-.225,2.082-.225,1.447,0,1.7.02,2.023.2Z"/>
    <path id="Path_257" data-name="Path 257" d="M759.712,943.205c-.342.215-.45.362-.147.2.215-.127.567-.391.508-.4A2.011,2.011,0,0,0,759.712,943.205Zm-.674.44c-.176.137-.176.147.039.039a.6.6,0,0,0,.215-.147C759.291,943.459,759.242,943.479,759.037,943.645Zm-.489.293c-.176.137-.176.147.039.039a.6.6,0,0,0,.215-.147C758.8,943.753,758.754,943.772,758.548,943.938Zm-.489.293c-.176.137-.176.147.039.039a.6.6,0,0,0,.215-.147c0-.078-.049-.059-.254.107Zm-.743.391c-.371.2-.352.274.02.088a1.017,1.017,0,0,0,.293-.2C757.63,944.446,757.62,944.456,757.317,944.622Z" transform="translate(-682.605 -850.541)"/>
  </g>
</svg>
