<svg id="php" xmlns="http://www.w3.org/2000/svg" xmlns:xlink="http://www.w3.org/1999/xlink" width="192.732" height="100" viewBox="0 0 192.732 100">
  <defs>
    <radialGradient id="radial-gradient" cx="0.3" cy="0.18" r="0.86" gradientUnits="objectBoundingBox">
      <stop offset="0" stop-color="#aeb2d5"/>
      <stop offset="0.003" stop-color="#aeb2d5"/>
      <stop offset="0.007" stop-color="#484c89"/>
    </radialGradient>
  </defs>
  <g id="Group_27" data-name="Group 27">
    <path id="Path_100" data-name="Path 100" d="M0,50c0,27.614,43.145,50,96.366,50s96.366-22.386,96.366-50S149.586,0,96.366,0,0,22.386,0,50" fill="url(#radial-gradient)"/>
    <path id="Path_101" data-name="Path 101" d="M94.382,94.332c51.142,0,92.6-20.723,92.6-46.288s-41.46-46.288-92.6-46.288-92.6,20.723-92.6,46.288,41.46,46.288,92.6,46.288" transform="translate(1.984 1.956)" fill="#777bb3"/>
    <path id="Path_102" data-name="Path 102" d="M36.9,41.586c4.2,0,7.344-.765,9.331-2.268,1.966-1.492,3.323-4.078,4.033-7.684.664-3.372.41-5.724-.75-6.995-1.188-1.3-3.754-1.955-7.631-1.955h-6.72L31.436,41.592H36.9ZM14.92,64.877a1.049,1.049,0,0,1-.808-.376,1.021,1.021,0,0,1-.22-.852l9.874-50.108a1.043,1.043,0,0,1,1.027-.835H46.075c6.688,0,11.667,1.788,14.8,5.325,3.145,3.551,4.118,8.517,2.888,14.755A23.356,23.356,0,0,1,61.2,39.8a23.614,23.614,0,0,1-4.706,5.82,20.741,20.741,0,0,1-7.75,4.581A35.563,35.563,0,0,1,38.1,51.551H29.481L27.02,64.038A1.043,1.043,0,0,1,26,64.873H14.925Z" transform="translate(15.454 14.153)"/>
    <path id="Path_103" data-name="Path 103" d="M36.577,24.251h5.858c4.678,0,6.3,1.013,6.855,1.615.915,1,1.089,3.114.5,6.107-.662,3.353-1.888,5.729-3.644,7.063-1.8,1.366-4.725,2.059-8.692,2.059h-4.2l3.319-16.846ZM46.626,12.219H25.346a2.082,2.082,0,0,0-2.053,1.67L13.419,64a2.046,2.046,0,0,0,.44,1.706,2.1,2.1,0,0,0,1.613.75H26.538a2.082,2.082,0,0,0,2.053-1.67l2.3-11.652h7.756a36.6,36.6,0,0,0,10.973-1.4,21.76,21.76,0,0,0,8.141-4.807,24.587,24.587,0,0,0,4.908-6.071,24.44,24.44,0,0,0,2.672-7.323c1.3-6.568.243-11.827-3.126-15.63-3.336-3.767-8.578-5.678-15.582-5.678m-15.9,30.941h6.731q6.69,0,9.969-2.486t4.422-8.306q1.1-5.587-1-7.883t-8.407-2.3H34.856L30.723,43.164m15.9-28.878q9.6,0,14.007,4.972t2.649,13.88a21.694,21.694,0,0,1-6.95,12.275,19.616,19.616,0,0,1-7.365,4.359,34.4,34.4,0,0,1-10.324,1.3H29.165L26.54,64.394H15.474l9.872-50.108H46.626" transform="translate(14.905 13.611)" fill="#fff"/>
    <path id="Path_104" data-name="Path 104" d="M64.308,58.577A1.049,1.049,0,0,1,63.5,58.2a1.021,1.021,0,0,1-.22-.852l4.367-22.175c.416-2.108.313-3.621-.287-4.262-.368-.391-1.473-1.046-4.744-1.046H54.7L49.212,57.738a1.043,1.043,0,0,1-1.027.835H37.205A1.049,1.049,0,0,1,36.4,58.2a1.021,1.021,0,0,1-.22-.852L46.052,7.237A1.043,1.043,0,0,1,47.079,6.4h10.98a1.049,1.049,0,0,1,.807.376,1.021,1.021,0,0,1,.22.852L56.7,19.724h8.513c6.485,0,10.882,1.127,13.444,3.448,2.615,2.368,3.424,6.154,2.42,11.248L76.488,57.738a1.043,1.043,0,0,1-1.027.835H64.308Z" transform="translate(40.277 7.131)"/>
    <path id="Path_105" data-name="Path 105" d="M58.61,5.917H47.631a2.082,2.082,0,0,0-2.053,1.67L35.7,57.693a2.045,2.045,0,0,0,.44,1.706,2.1,2.1,0,0,0,1.613.75h10.98a2.082,2.082,0,0,0,2.053-1.67l5.327-27.037h7.052c3.264,0,3.949.687,3.976.717.2.207.459,1.182.027,3.363L62.8,57.7a2.046,2.046,0,0,0,.44,1.706,2.1,2.1,0,0,0,1.613.75H76.01a2.082,2.082,0,0,0,2.053-1.67l4.594-23.318c1.078-5.473.156-9.58-2.74-12.2-2.763-2.5-7.392-3.72-14.15-3.72H58.517L60.659,8.375a2.046,2.046,0,0,0-.44-1.706,2.1,2.1,0,0,0-1.613-.75m0,2.063L55.981,21.3h9.781q9.23,0,12.736,3.175t2.1,10.293L76.008,58.088H64.855L69.222,35.92q.745-3.783-.55-5.16t-5.509-1.376H54.391L48.736,58.09H37.757L47.631,7.982H58.61" transform="translate(39.728 6.591)" fill="#fff"/>
    <path id="Path_106" data-name="Path 106" d="M77.761,41.586c4.2,0,7.344-.765,9.331-2.268,1.966-1.492,3.323-4.078,4.033-7.684.664-3.372.41-5.724-.75-6.995-1.188-1.3-3.754-1.955-7.631-1.955h-6.72L72.294,41.592h5.462ZM55.782,64.877a1.049,1.049,0,0,1-.808-.376,1.021,1.021,0,0,1-.22-.852l9.874-50.108a1.043,1.043,0,0,1,1.027-.835H86.937c6.693,0,11.667,1.788,14.8,5.325,3.145,3.551,4.114,8.515,2.888,14.755a23.3,23.3,0,0,1-2.56,7.014,23.664,23.664,0,0,1-4.706,5.82A20.741,20.741,0,0,1,89.6,50.2a35.563,35.563,0,0,1-10.648,1.351h-8.62L67.876,64.038a1.043,1.043,0,0,1-1.027.835H55.78Z" transform="translate(60.97 14.153)"/>
    <path id="Path_107" data-name="Path 107" d="M77.438,24.251H83.3c4.678,0,6.3,1.013,6.855,1.615.917,1,1.089,3.114.5,6.107-.662,3.353-1.888,5.729-3.644,7.063-1.8,1.366-4.725,2.059-8.692,2.059H74.121L77.44,24.249ZM87.487,12.219H66.207a2.082,2.082,0,0,0-2.053,1.67L54.28,64a2.046,2.046,0,0,0,.44,1.706,2.1,2.1,0,0,0,1.613.75H67.4a2.082,2.082,0,0,0,2.053-1.67l2.3-11.652H79.5a36.6,36.6,0,0,0,10.973-1.4,21.737,21.737,0,0,0,8.141-4.809,24.655,24.655,0,0,0,4.906-6.069,24.382,24.382,0,0,0,2.672-7.323c1.3-6.568.243-11.827-3.126-15.63-3.336-3.767-8.578-5.678-15.582-5.678m-15.9,30.941h6.731q6.694,0,9.969-2.486T92.7,32.371q1.1-5.587-1-7.883t-8.407-2.3H75.715L71.582,43.164m15.9-28.878q9.6,0,14.007,4.972t2.649,13.88a21.694,21.694,0,0,1-6.951,12.275,19.616,19.616,0,0,1-7.365,4.359,34.4,34.4,0,0,1-10.324,1.3H70.024L67.4,64.394H56.333l9.874-50.108H87.487" transform="translate(60.42 13.611)" fill="#fff"/>
  </g>
</svg>
