<svg id="phpmyadmin" xmlns="http://www.w3.org/2000/svg" width="179.454" height="100" viewBox="0 0 179.454 100">
  <path id="Path_108" data-name="Path 108" d="M92.3.3,92.211.094A.257.257,0,0,0,92,0L91.8.048c-.094.094-.141.142-.141.235L87.662,72.555l.612-.094L92.163,2.175l4.6,7.562h-.048a87.563,87.563,0,0,1,4.37,32.686l.281.422,4.557,8.074.281.281a54.88,54.88,0,0,0,23.527,12.4l2.112,3.427.281.094.048-.094L92.23,1.659,92.324.3M90.917,25.8q7.4,15.145,5.4,45.787l19.207-2.347ZM134.661,70.18q2.959-.353,3.8-1.269L37.919,81.189A11.261,11.261,0,0,0,43.506,91a11.869,11.869,0,0,0,2.959,1.55,12.077,12.077,0,0,1,3.053-2.489h.046q15.779-9.583,46.822-3l.235.046c2.254.47,4.507,1.034,6.622,1.69a1.831,1.831,0,0,0,1.55-.47,7.537,7.537,0,0,1,2.959-1.269v-.048A31.9,31.9,0,0,1,121.23,73.855a38.229,38.229,0,0,1,13.43-3.662M86.382,72.024l4.6-70.536A239.311,239.311,0,0,1,58.914,73.562l27.473-1.55M60.51,15.189,60.3,15.1l-.208.048L60,15.378,56.2,76.429l.562-.048,3.8-61-.094-.208M55.158,75.112l4.037-59.547L37.923,76.943l17.235-1.831" transform="translate(40.989 0)" fill="#ccc"/>
  <path id="Path_109" data-name="Path 109" d="M50.242,96.454q-1.2,0-2.486-.117a.277.277,0,0,1-.031-.547q7.511-1.55,12.283-2.6c3.122-1.767,5.71-2.53,7.9-2.332.337.029.72.061.739.383.017.284-.264.421-.941.64-.619.2-1.6.461-3,.8-1.207.292-2.7.635-4.5,1.034q-.246.14-.5.289A17.743,17.743,0,0,1,50.242,96.454Zm-.309-.556a17.838,17.838,0,0,0,8.434-1.786C56,94.627,53.2,95.22,49.933,95.9Zm17.286-4.522a12.286,12.286,0,0,0-5.09,1.334q3.956-.9,5.333-1.33Q67.341,91.376,67.219,91.376Zm-19.832,2.9c-.668,0-1.55-.007-2.7-.016-2.082-.016-4.934-.039-8.928-.04a.277.277,0,0,1-.118-.527c5.232-2.47,9.008-2.83,11.544-1.1a9.615,9.615,0,0,0,1.508.729c.557.227.812.331.754.62s-.37.317-1.26.331C47.966,94.278,47.7,94.28,47.387,94.28Zm-10.337-.609c3.332.005,5.793.025,7.645.039,1.617.013,2.793.022,3.514.011a8.828,8.828,0,0,1-1.324-.665C44.736,91.593,41.433,91.8,37.049,93.671Zm56.069.176q-1.115,0-2.3-.1a.277.277,0,0,1-.035-.547c5.388-1.128,9.409-2,12.391-2.665,3.068-1.722,5.62-2.466,7.784-2.272.331.014.7.032.729.348.024.292-.281.422-.933.631-.609.195-1.613.463-2.984.8q-1.758.428-4.4,1.02-.3.168-.6.35A18.455,18.455,0,0,1,93.118,93.847Zm-.059-.554a18.425,18.425,0,0,0,8.434-1.812Q97.913,92.27,93.06,93.294Zm17.219-4.5a12.062,12.062,0,0,0-4.905,1.25c2.641-.609,4.17-1,5-1.25ZM51.727,90.561a.277.277,0,0,1-.157-.5,38.437,38.437,0,0,1,8.9-4.385c1.7-.587,4.752-1.476,5.4-1.082a.373.373,0,0,1,.186.371c-.025.2-.077.608-3.356,1.916-2.49.994-6.258,2.264-10.9,3.672A.277.277,0,0,1,51.727,90.561Zm13.6-5.528c-1.368.018-6.88,1.522-11.728,4.387C61.422,86.979,64.539,85.587,65.324,85.032ZM76.948,13.657a.276.276,0,0,1-.2-.083,6.831,6.831,0,0,0-2.245-1.6c-1.254.141-2.714.318-4.288.508a.277.277,0,0,1-.175-.512,5.034,5.034,0,0,1,4.532-.56c4.011-.45,4.509-.386,4.675.018.149.364-.23.656-.984,1.239-.345.266-.735.568-1.133.921A.276.276,0,0,1,76.948,13.657Zm-1.441-1.793A8.037,8.037,0,0,1,76.961,13c.346-.3.685-.557.966-.774.258-.2.54-.417.694-.565A21.159,21.159,0,0,0,75.507,11.864ZM71.92,6.286a.278.278,0,0,1-.205-.091c-2.225-2.454-4.4-2.99-6.651-1.638a.277.277,0,0,1-.285-.475c2.408-1.446,4.81-.934,7.143,1.522,2.362-2.434,4.762-2.946,7.138-1.523a.277.277,0,0,1-.284.475c-2.22-1.33-4.4-.794-6.653,1.64A.277.277,0,0,1,71.92,6.286Z" transform="translate(38.358 3.546)" fill="#ccc"/>
  <g id="Group_28" data-name="Group 28" transform="translate(0 73.689)">
    <path id="Path_110" data-name="Path 110" d="M2.6,41.329H8.819a5.029,5.029,0,0,1,4.12,1.6,5.322,5.322,0,0,1,.832,4.453,7.487,7.487,0,0,1-.676,2.15,6.909,6.909,0,0,1-1.284,1.788A5.577,5.577,0,0,1,9.685,52.71a9.072,9.072,0,0,1-3.009.42H3.929L3.238,57.4H0Zm2.826,2.543-1.09,6.742H6.3a4.427,4.427,0,0,0,2.9-.8,4.247,4.247,0,0,0,1.244-2.664,3.157,3.157,0,0,0-.337-2.539,3.176,3.176,0,0,0-2.472-.741H5.421m12.007-6.811h3.213l-.691,4.266h2.859q2.7,0,3.742,1.02a3.612,3.612,0,0,1,.676,3.3L26.02,53.128H22.757L23.908,46a2.084,2.084,0,0,0-.187-1.652,2.185,2.185,0,0,0-1.619-.416H19.536l-1.49,9.214H14.812l2.6-16.071m13.318,4.266H36.95a5.029,5.029,0,0,1,4.12,1.6A5.322,5.322,0,0,1,41.9,47.4a7.549,7.549,0,0,1-.674,2.15,6.922,6.922,0,0,1-1.284,1.79,5.577,5.577,0,0,1-2.127,1.394,9.073,9.073,0,0,1-3.009.42H32.036l-.691,4.266H28.13Zm2.826,2.543-1.09,6.742h1.969a4.427,4.427,0,0,0,2.9-.8,4.27,4.27,0,0,0,1.249-2.664,3.157,3.157,0,0,0-.337-2.539,3.176,3.176,0,0,0-2.472-.741H33.555" transform="translate(0 -33.627)" fill="#6c78af"/>
    <path id="Path_111" data-name="Path 111" d="M24.415,35.43h6.226l2.734,14.941L40.942,35.43h6.2L44,54.9H39.839l2.795-15.17L35,54.9H30.5L27.634,39.575,25.582,54.9H21.264L24.41,35.43m30.2,16.321h3.142l1.8-11.15h3.908L61.218,54.518a6.716,6.716,0,0,1-2.052,4.2,6.582,6.582,0,0,1-4.418,1.365H47.087l.468-2.9h6.992a2.913,2.913,0,0,0,1.815-.526,2.289,2.289,0,0,0,.853-1.523l.042-.239H53.8q-3.318,0-4.526-1.265t-.728-4.22L49.969,40.6h3.864l-1.378,8.526c-.175,1.078-.125,1.785.158,2.123s.951.5,2.012.5M74,35.43h4.5L83.955,54.9H79.227l-1.1-4.634H69.359L66.812,54.9h-4.5ZM75.465,39.3l-4.162,7.5H77.31l-1.848-7.5M98.686,54.9H91.172c-2.289,0-3.933-.624-5-1.935s-1.407-3.088-1.034-5.394a9.128,9.128,0,0,1,.82-2.605A8.387,8.387,0,0,1,87.518,42.8a6.743,6.743,0,0,1,2.585-1.69,11.1,11.1,0,0,1,3.642-.51h3.35l.837-5.171h3.891Zm-3.4-3.067,1.317-8.153H94.231a5.427,5.427,0,0,0-3.529.961,5.076,5.076,0,0,0-1.513,3.2,3.821,3.821,0,0,0,.416,3.08,3.839,3.839,0,0,0,2.992.907h2.68M104.384,40.6h15q3.265,0,4.505,1.232t.791,4L123.216,54.9h-3.931l1.386-8.6a2.846,2.846,0,0,0-.156-2.081c-.275-.333-.924-.5-1.946-.5h-2.191l-1.8,11.164h-4l1.8-11.164h-4.568l-1.8,11.164h-3.935l2.31-14.3m29-1.623h-4.1l.572-3.548h4.1ZM130.835,54.9h-4.1l2.31-14.3h4.1l-2.31,14.3m5.691-14.3h7.352q3.334,0,4.564,1.211c.818.807,1.082,2.148.776,4.02L147.753,54.9h-3.908l1.394-8.6q.259-1.6-.179-2.081a2.826,2.826,0,0,0-1.987-.479h-3.121l-1.8,11.164h-3.908l2.31-14.3" transform="translate(22.986 -35.411)" fill="#f89c0e"/>
  </g>
</svg>
