<svg id="postman" xmlns="http://www.w3.org/2000/svg" width="99.998" height="100" viewBox="0 0 99.998 100">
  <g id="Group_29" data-name="Group 29" transform="translate(0 0)">
    <path id="Path_112" data-name="Path 112" d="M89.573,19.442a50,50,0,1,0-9,70.123,50,50,0,0,0,9-70.123Z" transform="translate(0 0)" fill="#ff6c37"/>
    <path id="Path_113" data-name="Path 113" d="M52.528,21.24,31.446,42.49l-5.958-6.125C46.237,15.616,48.32,17.491,52.529,21.24Z" transform="translate(14.336 10.62)" fill="#fff"/>
    <path id="Path_114" data-name="Path 114" d="M31.717,43.342a.75.75,0,0,1-.5-.208l-6-6a.75.75,0,0,1,0-1.042C45.674,15.635,48.466,16.593,53.3,20.968a.667.667,0,0,1,.25.542.586.586,0,0,1-.208.542L32.259,43.136a.79.79,0,0,1-.542.208ZM26.8,36.635l4.917,4.917,20-20a4.5,4.5,0,0,0-5.917-1c-3.625,1.625-9.458,6.583-19,16.082Z" transform="translate(14.065 10.349)" fill="#ff6c37"/>
    <path id="Path_115" data-name="Path 115" d="M35.238,47.366l-5.75-5.875L50.57,20.657c5.667,5.542-2.75,14.792-15.332,26.707Z" transform="translate(16.586 11.619)" fill="#fff"/>
    <path id="Path_116" data-name="Path 116" d="M35.487,48.477a.875.875,0,0,1-.5-.208l-5.875-5.75a.875.875,0,0,1,0-.667.807.807,0,0,1,0-.542L50.194,20.228a.791.791,0,0,1,1.083,0,6.462,6.462,0,0,1,2.083,4.958c0,5.625-6.417,12.707-17.332,23.041a.875.875,0,0,1-.542.25ZM30.82,41.853l4.708,4.706c8.333-7.875,16.292-16,16.332-21.5a4.75,4.75,0,0,0-1.083-3.208Z" transform="translate(16.337 11.257)" fill="#ff6c37"/>
    <path id="Path_117" data-name="Path 117" d="M27.621,30.181l4.167,4.167a.25.25,0,0,1,0,.375L23,36.6a.834.834,0,0,1-.75-1.417L27.371,30.1a.412.412,0,0,1,.25.083Z" transform="translate(12.369 16.929)" fill="#fff"/>
    <path id="Path_118" data-name="Path 118" d="M23.062,37.688a1.625,1.625,0,0,1-1.375-.792,1.584,1.584,0,0,1,.292-1.875L27.062,29.9a1,1,0,0,1,1.333,0l4.167,4.167a.922.922,0,0,1,.25.917.969.969,0,0,1-.708.667l-8.792,1.875Zm4.667-6.333-4.708,4.708L30.814,34.4ZM28.1,30.98Z" transform="translate(12.095 16.672)" fill="#ff6c37"/>
    <path id="Path_119" data-name="Path 119" d="M54.9,13.712a8.083,8.083,0,1,0-1.458,12.75l-5.667-5.667Z" transform="translate(23.174 6.438)" fill="#fff"/>
    <path id="Path_120" data-name="Path 120" d="M49.506,28.617a8.841,8.841,0,0,1-6.181-15.04,8.922,8.922,0,0,1,12.5,0,.708.708,0,0,1,.25.542.719.719,0,0,1-.25.542l-6.75,6.375L54.2,26.078a.7.7,0,0,1,.208.625.75.75,0,0,1-.333.542,9.062,9.062,0,0,1-4.583,1.375Zm0-16.167a7.322,7.322,0,1,0,2.917,14.042l-4.917-4.917a.668.668,0,0,1,0-1.042l6.5-6.542a7.477,7.477,0,0,0-4.5-1.542Z" transform="translate(22.942 6.2)" fill="#ff6c37"/>
    <path id="Path_121" data-name="Path 121" d="M52.613,12.977,45.488,20.06l5.667,5.667a8.64,8.64,0,0,0,1.583-1.167A8.333,8.333,0,0,0,52.613,12.977Z" transform="translate(25.585 7.3)" fill="#fff"/>
    <path id="Path_122" data-name="Path 122" d="M51.344,26.652a.625.625,0,0,1-.5-.208l-5.667-5.667a.667.667,0,0,1,0-1.042l7.083-6.958a.75.75,0,0,1,1.25,0,8.75,8.75,0,0,1,0,12.5,7.624,7.624,0,0,1-1.667,1.333.672.672,0,0,1-.5.042Zm-4.583-6.415,4.708,4.708a7.969,7.969,0,0,0,.917-.75,7.375,7.375,0,0,0,2.167-5.208,7.156,7.156,0,0,0-1.792-4.75Z" transform="translate(25.27 6.999)" fill="#ff6c37"/>
    <path id="Path_123" data-name="Path 123" d="M51.648,21.248a3.047,3.047,0,0,0-4.167,0L28.608,40.078l3.125,3.167,19.957-17.5a3.085,3.085,0,0,0-.042-4.5Z" transform="translate(16.091 11.488)" fill="#fff"/>
    <path id="Path_124" data-name="Path 124" d="M31.9,44.269a.75.75,0,0,1-.5-.208L28.23,40.894a.75.75,0,0,1,0-1.042L47.1,21.06a3.835,3.835,0,0,1,6.542,2.833,3.922,3.922,0,0,1-1.292,2.75L32.4,44.142a.711.711,0,0,1-.5.125ZM29.689,40.35l2.083,2.125L51.354,25.434a2.3,2.3,0,0,0,.792-1.667,2.234,2.234,0,0,0-.708-1.708,2.333,2.333,0,0,0-3.292,0Z" transform="translate(15.76 11.216)" fill="#ff6c37"/>
    <path id="Path_125" data-name="Path 125" d="M21.618,53.337a.422.422,0,0,0,0,.5l.833,3.625a1.074,1.074,0,0,1-.519,1.094,1.016,1.016,0,0,1-1.191-.12l-5.708-5.5L32.826,35h6.167L43.16,39.17A94.592,94.592,0,0,1,21.618,53.337Z" transform="translate(8.457 19.688)" fill="#fff"/>
    <path id="Path_126" data-name="Path 126" d="M21.513,59.746a1.76,1.76,0,0,1-1.25-.542l-5.458-5.458a.667.667,0,0,1,0-1.042L32.72,34.747a.7.7,0,0,1,.375-.208H39.3a.75.75,0,0,1,.5,0l4.167,4.167a.665.665,0,0,1,.208.583.672.672,0,0,1-.25.542l-.333.292A102.134,102.134,0,0,1,22.221,53.831l.792,3.375A1.8,1.8,0,0,1,21.3,59.414ZM16.43,53.2l4.915,4.958a.221.221,0,1,0,.333-.292l-.833-3.625a1.163,1.163,0,0,1,.625-1.333A102.477,102.477,0,0,0,42.3,39.5l-3.417-3.417H33.3ZM22.43,53.954Z" transform="translate(8.187 19.403)" fill="#ff6c37"/>
    <path id="Path_127" data-name="Path 127" d="M12.431,50.717,16.6,46.55l6.417,6.417-10.208-.708a.832.832,0,0,1-.375-1.541Z" transform="translate(6.769 26.183)" fill="#fff"/>
    <path id="Path_128" data-name="Path 128" d="M23.317,53.848,13.15,53.14a1.584,1.584,0,0,1-1-2.667l4.167-4.167a.75.75,0,0,1,1.042,0l6.375,6.375a.7.7,0,0,1,0,.833.792.792,0,0,1-.417.333ZM13.15,51.515l8.333.542L16.9,47.765Z" transform="translate(6.591 25.927)" fill="#ff6c37"/>
    <path id="Path_129" data-name="Path 129" d="M33.771,36.6l-8.417,1.292,4.875-4.833Z" transform="translate(14.261 18.595)" fill="#fff"/>
    <path id="Path_130" data-name="Path 130" d="M25.643,38.939a.713.713,0,0,1-.667-.417.7.7,0,0,1,0-.833l4.833-4.875a.791.791,0,0,1,1.083,0l3.544,3.541a.7.7,0,0,1,0,.75.734.734,0,0,1-.583.542L25.52,38.939ZM30.518,34.4,27.81,37.1l4.667-.708Z" transform="translate(13.972 18.336)" fill="#ff6c37"/>
    <path id="Path_131" data-name="Path 131" d="M33.186,36.6l-5.875.75A.75.75,0,0,1,26.6,36.1l3.042-3.042Z" transform="translate(14.846 18.593)" fill="#fff"/>
    <path id="Path_132" data-name="Path 132" d="M27.422,47.82a1.542,1.542,0,0,1-1.333-.792,1.5,1.5,0,0,1,.25-1.792l3.042-3.042a.791.791,0,0,1,1.083,0l3.542,3.542a.75.75,0,0,1-.458,1.292l-5.833.75Zm0-1.542,4.417-.542-1.958-1.958-2.5,2.5ZM63.671,16.154a.625.625,0,0,0-.792-.25.578.578,0,0,0-.291.344.59.59,0,0,0,.041.448,1.792,1.792,0,0,1-.208,1.875.529.529,0,0,0-.156.4.594.594,0,0,0,.156.4.453.453,0,0,0,.333,0,.547.547,0,0,0,.542-.167,2.875,2.875,0,0,0,.375-3.042Z" transform="translate(14.568 8.915)" fill="#ff6c37"/>
  </g>
</svg>
