<svg xmlns="http://www.w3.org/2000/svg" xmlns:xlink="http://www.w3.org/1999/xlink" width="100" height="100" viewBox="0 0 100 100">
  <defs>
    <linearGradient id="linear-gradient" x1="-0.469" y1="0.501" x2="0.906" y2="0.501" gradientUnits="objectBoundingBox">
      <stop offset="0" stop-color="#21d789"/>
      <stop offset="1" stop-color="#07c3f2"/>
    </linearGradient>
    <linearGradient id="linear-gradient-2" x1="-0.537" y1="1.055" x2="1.34" y2="-0.076" gradientUnits="objectBoundingBox">
      <stop offset="0.011" stop-color="#fcf84a"/>
      <stop offset="0.112" stop-color="#a7eb62"/>
      <stop offset="0.206" stop-color="#5fe077"/>
      <stop offset="0.273" stop-color="#32da84"/>
      <stop offset="0.306" stop-color="#21d789"/>
      <stop offset="0.577" stop-color="#21d789"/>
      <stop offset="0.597" stop-color="#21d789"/>
      <stop offset="0.686" stop-color="#20d68c"/>
      <stop offset="0.763" stop-color="#1ed497"/>
      <stop offset="0.835" stop-color="#19d1a9"/>
      <stop offset="0.904" stop-color="#13ccc2"/>
      <stop offset="0.971" stop-color="#0bc6e1"/>
      <stop offset="1" stop-color="#07c3f2"/>
    </linearGradient>
    <linearGradient id="linear-gradient-3" x1="0.307" y1="1.16" x2="0.778" y2="0.223" gradientUnits="objectBoundingBox">
      <stop offset="0" stop-color="#21d789"/>
      <stop offset="0.164" stop-color="#24d788"/>
      <stop offset="0.305" stop-color="#2fd886"/>
      <stop offset="0.437" stop-color="#41da82"/>
      <stop offset="0.564" stop-color="#5adc7d"/>
      <stop offset="0.688" stop-color="#7ae077"/>
      <stop offset="0.809" stop-color="#a1e36e"/>
      <stop offset="0.925" stop-color="#cfe865"/>
      <stop offset="1" stop-color="#f1eb5e"/>
    </linearGradient>
    <linearGradient id="linear-gradient-4" x1="-0.096" y1="2.022" x2="1.186" y2="-0.169" gradientUnits="objectBoundingBox">
      <stop offset="0" stop-color="#21d789"/>
      <stop offset="0.061" stop-color="#24d788"/>
      <stop offset="0.113" stop-color="#2fd886"/>
      <stop offset="0.162" stop-color="#41da82"/>
      <stop offset="0.209" stop-color="#5add7d"/>
      <stop offset="0.255" stop-color="#79e077"/>
      <stop offset="0.258" stop-color="#7ce076"/>
      <stop offset="0.499" stop-color="#8ce173"/>
      <stop offset="0.925" stop-color="#b2e56b"/>
    </linearGradient>
    <linearGradient id="linear-gradient-5" x1="1.118" y1="0.505" x2="-0.141" y2="0.494" gradientUnits="objectBoundingBox">
      <stop offset="0.387" stop-color="#fcf84a"/>
      <stop offset="0.536" stop-color="#ecf451"/>
      <stop offset="0.826" stop-color="#c2e964"/>
      <stop offset="0.925" stop-color="#b2e56b"/>
    </linearGradient>
  </defs>
  <g id="pycharm" transform="translate(-119.559 -740.087)">
    <g id="Group_40" data-name="Group 40" transform="translate(119.559 740.087)">
      <path id="Path_181" data-name="Path 181" d="M53.343,11,82.486,35.429,72.057,56.714,54.343,51.857H39.2Z" transform="translate(16.8 4.714)" fill="url(#linear-gradient)"/>
      <path id="Path_182" data-name="Path 182" d="M40.714,31.571,35,61.429l-.571,10.286L20.286,77.857,0,80,6.143,15.286,42.714,0,65.286,14.857Z" fill="url(#linear-gradient-2)"/>
      <path id="Path_183" data-name="Path 183" d="M40.714,22.1l2.714,57.714L34.286,90.529,0,70.529l28.143-42Z" transform="translate(0 9.471)" fill="url(#linear-gradient-3)"/>
      <path id="Path_184" data-name="Path 184" d="M65.314,27.286H30.6L61.314,0Z" transform="translate(13.114)" fill="url(#linear-gradient-4)"/>
      <path id="Path_185" data-name="Path 185" d="M91.343,81.929,60.771,92.357,20.2,80.929,32.057,24.071l4.714-4.286L61.486,17.5,59.2,42.357l19.714-7.571Z" transform="translate(8.657 7.5)" fill="url(#linear-gradient-5)"/>
    </g>
    <g id="Group_41" data-name="Group 41" transform="translate(138.702 759.23)">
      <rect id="Rectangle_10" data-name="Rectangle 10" width="61.714" height="61.714"/>
      <rect id="Rectangle_11" data-name="Rectangle 11" width="23.143" height="3.857" transform="translate(5.857 50.143)" fill="#fff"/>
      <path id="Path_186" data-name="Path 186" d="M17.3,19.1H27.729c6.143,0,9.857,3.571,9.857,8.857V28.1c0,5.857-4.571,9-10.286,9H23.014v7.571H17.443V19.1ZM27.443,31.957c2.857,0,4.429-1.714,4.429-3.857v-.143c0-2.571-1.714-3.857-4.571-3.857H23.014v7.857h4.429Z" transform="translate(-11.729 -10.957)" fill="#fff"/>
      <path id="Path_187" data-name="Path 187" d="M33.1,32.086h0A13,13,0,0,1,46.386,18.8c4.857,0,7.714,1.571,10.143,4l-3.571,4.143a9.222,9.222,0,0,0-6.571-2.857c-4.286,0-7.429,3.571-7.429,8v-.143c0,4.429,3,8,7.429,8,2.857,0,4.714-1.143,6.714-3l3.571,3.571a12.848,12.848,0,0,1-10.429,4.571,12.729,12.729,0,0,1-13.143-13" transform="translate(-4.957 -11.086)" fill="#fff"/>
    </g>
  </g>
</svg>
