<svg id="raspberry" xmlns="http://www.w3.org/2000/svg" width="78.459" height="100" viewBox="0 0 78.459 100">
  <g id="Group_31" data-name="Group 31" transform="translate(0)">
    <path id="Path_135" data-name="Path 135" d="M21.076,0a2.785,2.785,0,0,0-1.665.681,3.811,3.811,0,0,0-4.28.406,2.9,2.9,0,0,0-3.2.915A5.029,5.029,0,0,0,7.312,3.4c-3.4-.406-4.386,1.943-3.2,4.148a2.859,2.859,0,0,0,.2,4.08A3.4,3.4,0,0,0,5.438,15.4,3.2,3.2,0,0,0,7,18.8a4.5,4.5,0,0,0,2.618,3.842,3.733,3.733,0,0,0,3.4,3.124,3.676,3.676,0,0,0,3.4,2.583A15.806,15.806,0,0,0,7.34,44.223L6.7,45.378A15.336,15.336,0,0,0,3.979,68.357a46.651,46.651,0,0,0,2.109,6.8,16.993,16.993,0,0,0,10.5,13.6,35.413,35.413,0,0,0,10.2,5.71A16.649,16.649,0,0,0,39.128,100h.2a16.649,16.649,0,0,0,12.339-5.538,35.407,35.407,0,0,0,10.2-5.71,16.993,16.993,0,0,0,10.5-13.6,43,43,0,0,0,2.109-6.8,15.336,15.336,0,0,0-2.718-22.978l-1.087-1.156a15.837,15.837,0,0,0-8.906-15.634,3.67,3.67,0,0,0,3.4-2.583,3.67,3.67,0,0,0,3.4-3.124,4.483,4.483,0,0,0,2.618-3.842,3.194,3.194,0,0,0,1.562-3.4,3.4,3.4,0,0,0,1.121-3.773,2.859,2.859,0,0,0,.2-4.08c1.187-2.174,0-4.52-3.2-4.148a5.029,5.029,0,0,0-4.792-1.634,2.921,2.921,0,0,0-3.161-.918,3.811,3.811,0,0,0-4.28-.406A3.7,3.7,0,0,0,54.29.853a3.873,3.873,0,0,0-3.739.643,3.842,3.842,0,0,0-4.214,1.9H45.01A15.056,15.056,0,0,0,39.024,12a15.056,15.056,0,0,0-5.985-8.8H31.712A3.842,3.842,0,0,0,27.5,1.5,3.873,3.873,0,0,0,23.689.853,8.231,8.231,0,0,0,21.072,0Z" transform="translate(-0.001)"/>
    <path id="Path_136" data-name="Path 136" d="M11.828,8.356a64.125,64.125,0,0,1,18.015,12.2c-1.5,6.185-9.621,6.491-12.576,6.329a2.218,2.218,0,0,0,1.293-1.121,33.986,33.986,0,0,1-5.2-1.087,1.734,1.734,0,0,0,1.393-.812,15.062,15.062,0,0,1-4.692-1.937,2.655,2.655,0,0,0,1.871-.406,18.149,18.149,0,0,1-4.489-2.789,3.4,3.4,0,0,0,1.9-.306,17.305,17.305,0,0,1-3.6-2.921,2.655,2.655,0,0,0,1.871-.172,15.269,15.269,0,0,1-3.124-3.4,2.28,2.28,0,0,0,2.14,0,19.346,19.346,0,0,1-2.821-3.4,4.5,4.5,0,0,0,2,0,9.527,9.527,0,0,0-1.8-3.4,32,32,0,0,0,4.589,0L7.477,3.78a9.153,9.153,0,0,1,5.067.512c.612-.478,0-1.087-.781-1.7a18.118,18.118,0,0,1,4.248,1.056c.643-.612-.478-1.156-1.015-1.837a10.839,10.839,0,0,1,4.451,1.734c.781-.718,0-1.29-.437-1.905a10.871,10.871,0,0,1,3.739,2.415,1.328,1.328,0,0,0,.509-.906,1.312,1.312,0,0,0-.306-.993,9.474,9.474,0,0,1,2.993,2.583A1.671,1.671,0,0,0,26.423,2.9a29.722,29.722,0,0,1,3.4,3.4,2.878,2.878,0,0,0,.544-1.5c3.2,3.124,7.716,10.908,1.156,14A61.663,61.663,0,0,0,11.772,8.372Zm50.3,0a64.126,64.126,0,0,0-18.015,12.2c1.562,6.185,9.621,6.491,12.576,6.329a2.218,2.218,0,0,1-1.156-1.156,33.986,33.986,0,0,0,5.2-1.087,1.745,1.745,0,0,1-1.359-.812,15.062,15.062,0,0,0,4.692-1.937,2.655,2.655,0,0,1-1.9-.406A18.149,18.149,0,0,0,66.653,18.7a3.4,3.4,0,0,1-1.9-.306,17.306,17.306,0,0,0,3.6-2.921,2.655,2.655,0,0,1-1.871-.172,15.269,15.269,0,0,0,3.124-3.4,2.28,2.28,0,0,1-2.14,0,19.346,19.346,0,0,0,2.821-3.4,4.5,4.5,0,0,1-2,0,9.527,9.527,0,0,1,1.8-3.4,32,32,0,0,1-4.589,0l1.156-1.187a9.153,9.153,0,0,0-5.067.512c-.612-.478,0-1.087.781-1.7a18.118,18.118,0,0,0-4.248,1.056c-.781-.781.306-1.29.884-1.968a10.839,10.839,0,0,0-4.451,1.734c-.781-.718,0-1.29.437-1.905A10.87,10.87,0,0,0,51.25,4.061a1.359,1.359,0,0,1-.531-.9,1.315,1.315,0,0,1,.287-1,9.474,9.474,0,0,0-2.993,2.583,1.671,1.671,0,0,1-.478-1.837,29.721,29.721,0,0,0-3.4,3.4,2.878,2.878,0,0,1-.544-1.5c-3.2,3.124-7.716,10.908-1.156,14A61.522,61.522,0,0,1,62.049,8.378Z" transform="translate(2.142 0.921)" fill="#75a928"/>
    <path id="Path_137" data-name="Path 137" d="M49.513,62.279A10.949,10.949,0,0,1,38.23,72.818,10.949,10.949,0,0,1,26.81,62.385,10.949,10.949,0,0,1,38.092,51.846,10.949,10.949,0,0,1,49.513,62.279ZM31.567,32.369a11.183,11.183,0,0,1,1.9,15.6A11.292,11.292,0,0,1,18.31,52.42a11.183,11.183,0,0,1-1.9-15.6,11.292,11.292,0,0,1,15.159-4.451Zm12.714-.578a11.183,11.183,0,0,0-1.9,15.6,11.292,11.292,0,0,0,15.159,4.451,11.183,11.183,0,0,0,1.9-15.6,11.292,11.292,0,0,0-15.159-4.451ZM8.052,37.47c5.1-1.359,1.7,21.038-2.415,19.2a12.1,12.1,0,0,1,2.412-19.2Zm58.726-.344c-5.1-1.359-1.7,21.038,2.415,19.2a12.1,12.1,0,0,0-2.412-19.2ZM49.513,20.477c8.768-1.5,16.078,3.739,15.775,13.257-.275,3.739-18.9-12.745-15.775-13.257ZM25.235,20.2C16.467,18.7,9.157,23.941,9.46,33.459,9.735,37.092,28.459,20.746,25.235,20.2ZM37.852,18C32.617,18,27.7,21.873,27.7,24.216s4.148,5.741,10.152,5.81S48,27.715,48,24.791,42.266,18,37.643,18ZM38.2,76.08c4.554-.2,10.671,1.462,10.7,3.67s-5.541,6.972-11.021,6.8-11.183-4.623-11.111-6.329c0-2.48,6.8-4.414,11.42-4.28ZM21.334,62.96c3.4,3.9,4.686,10.808,2,12.807s-8.8.918-13.223-5.435c-2.958-5.373-2.577-10.777-.478-12.476,3.124-1.905,7.987.681,11.726,5ZM54.408,61.71c-3.4,4.114-5.467,11.62-2.921,14.038,2.449,1.874,9.043,1.634,13.9-5.132a12.922,12.922,0,0,0,.344-14.1c-2.993-2.312-7.3.643-11.32,5.195Z" transform="translate(1.095 10.114)" fill="#bc1142"/>
  </g>
</svg>
