<svg id="react" xmlns="http://www.w3.org/2000/svg" width="112.403" height="100" viewBox="0 0 112.403 100">
  <path id="Path_138" data-name="Path 138" d="M24.918,31.37A10.037,10.037,0,1,1,34.955,41.407,10.015,10.015,0,0,1,24.918,31.37Z" transform="translate(21.246 18.535)" fill="#00d8ff" fill-rule="evenodd"/>
  <g id="Group_32" data-name="Group 32" transform="translate(0 0)">
    <path id="Path_139" data-name="Path 139" d="M54.834,14.061c13.4,0,26.261,1.887,36.216,5.314a45.652,45.652,0,0,1,14.2,7.492c3.781,3.156,5.78,6.615,5.78,10,0,3.523-2.112,7.124-6.107,10.413A47.845,47.845,0,0,1,89.765,55.1c-9.292,3.081-21.7,4.778-34.933,4.778-14.1,0-26.427-1.666-35.649-4.818A45.347,45.347,0,0,1,4.505,47.2C.664,43.908-1.367,40.336-1.367,36.87c0-3.367,1.93-6.8,5.58-9.921a43.917,43.917,0,0,1,13.92-7.474C28.151,15.983,41.185,14.061,54.834,14.061Zm0,41.016c12.734,0,24.6-1.61,33.422-4.534a43.1,43.1,0,0,0,13.622-6.967c2.81-2.313,4.357-4.695,4.357-6.706,0-1.891-1.44-4.134-4.055-6.317a40.908,40.908,0,0,0-12.691-6.638c-9.466-3.258-21.772-5.052-34.654-5.052-12.935,0-25.737,1.876-35.121,5.146C8.468,27.929,3.435,33.293,3.435,36.87c0,1.992,1.49,4.365,4.194,6.681a40.589,40.589,0,0,0,13.108,6.966C29.465,53.5,41.255,55.077,54.833,55.077Z" transform="translate(1.367 13.035)" fill="#00d8ff"/>
    <path id="Path_140" data-name="Path 140" d="M68.336-1.367A10.142,10.142,0,0,1,73.471-.1c3.051,1.76,5.115,5.388,5.968,10.492a47.839,47.839,0,0,1-.8,17.041c-1.975,9.593-6.7,21.187-13.312,32.648C58.282,72.3,50.681,82.143,43.344,88.557,36.049,94.934,28.52,98.592,22.685,98.592a10.6,10.6,0,0,1-5.367-1.316c-2.917-1.681-4.925-5.066-5.807-9.789a43.9,43.9,0,0,1,.48-15.794C13.966,61.292,18.8,49.064,25.6,37.252l.032-.057c6.7-11.61,14.757-21.81,22.7-28.719a50.682,50.682,0,0,1,10.5-7.224A21.8,21.8,0,0,1,68.336-1.367ZM22.685,93.79c4.62,0,11.161-3.308,17.5-8.848,6.944-6.071,14.2-15.5,20.983-27.257,6.36-11.028,10.894-22.114,12.769-31.218A43.094,43.094,0,0,0,74.7,11.186c-.6-3.59-1.89-6.12-3.631-7.124a5.437,5.437,0,0,0-2.736-.627c-4.319,0-10.619,3.238-16.853,8.663-7.536,6.559-15.226,16.3-21.657,27.442l-.031.056C23.331,50.8,18.561,62.831,16.708,72.589c-2.223,11.7-.091,18.741,3.008,20.527A5.907,5.907,0,0,0,22.685,93.79Z" transform="translate(10.72 1.367)" fill="#00d8ff"/>
    <path id="Path_141" data-name="Path 141" d="M68.287,98.586c-5.526,0-12.477-3.362-19.571-9.466C40.684,82.21,32.49,71.893,25.643,60.069,18.931,48.476,14.121,36.4,12.1,26.062a45.663,45.663,0,0,1-.633-16.046C12.3,5.164,14.295,1.7,17.227,0a10.41,10.41,0,0,1,5.287-1.308A22.753,22.753,0,0,1,32.522,1.489,52.95,52.95,0,0,1,43.661,9.277c7.326,6.5,15.01,16.39,21.636,27.838,7.063,12.2,11.8,23.7,13.69,33.265a45.345,45.345,0,0,1,.55,16.643c-.923,4.974-3,8.521-5.994,10.259A10.349,10.349,0,0,1,68.287,98.586ZM22.513,3.5a5.708,5.708,0,0,0-2.88.661C18,5.105,16.777,7.476,16.2,10.832a40.92,40.92,0,0,0,.613,14.309c1.922,9.828,6.534,21.377,12.987,32.522C36.287,68.868,44.324,79.007,51.848,85.48A44.16,44.16,0,0,0,61.1,91.775a17.217,17.217,0,0,0,7.186,2.009,5.643,5.643,0,0,0,2.85-.659c1.723-1,3.03-3.477,3.68-6.979a40.588,40.588,0,0,0-.54-14.835c-1.792-9.051-6.334-20.044-13.135-31.791C54.765,28.5,47.425,19.039,40.472,12.867,33.865,7,27.151,3.5,22.513,3.5Z" transform="translate(10.733 1.414)" fill="#00d8ff"/>
  </g>
</svg>
