<svg xmlns="http://www.w3.org/2000/svg" width="105.335" height="100" viewBox="0 0 105.335 100">
  <path id="redux" d="M74.986,72.827a7.529,7.529,0,0,0-.8-15.013h-.268a7.5,7.5,0,0,0-7.238,7.775,7.7,7.7,0,0,0,2.144,4.96C64.263,79.531,57.293,86.1,46.839,91.594A36.261,36.261,0,0,1,24.99,95.75c-6.033-.805-10.723-3.485-13.672-7.909a19.69,19.69,0,0,1-1.071-20.778A31.575,31.575,0,0,1,19.36,56.339c-.536-1.742-1.341-4.692-1.742-6.836C-1.821,63.577.19,82.612,6.088,91.594c4.424,6.7,13.4,10.858,23.324,10.858a32.989,32.989,0,0,0,8.043-.937c17.157-3.351,30.16-13.54,37.531-28.687ZM98.577,56.205c-10.187-11.931-25.2-18.5-42.357-18.5H54.076a7.368,7.368,0,0,0-6.568-4.022H47.24A7.509,7.509,0,0,0,47.508,48.7h.268a7.552,7.552,0,0,0,6.568-4.558h2.412a51.094,51.094,0,0,1,28.551,8.712A35.9,35.9,0,0,1,99.515,70.009c2.278,5.631,2.144,11.126-.268,15.818-3.753,7.1-10.053,10.992-18.364,10.992A34.279,34.279,0,0,1,67.747,94c-1.475,1.341-4.156,3.485-6.033,4.826a41.354,41.354,0,0,0,17.293,4.158c12.869,0,22.384-7.106,26.005-14.209C108.9,81,108.631,67.6,98.577,56.205ZM30.483,75.1a7.534,7.534,0,0,0,7.506,7.238h.268a7.509,7.509,0,0,0-.268-15.013h-.268a2.274,2.274,0,0,0-.937.134,49.112,49.112,0,0,1-6.97-29.758,35.957,35.957,0,0,1,7.909-20.778c3.887-4.96,11.394-7.373,16.488-7.506,14.208-.268,20.24,17.427,20.642,24.53,1.743.4,4.692,1.341,6.7,2.01C79.946,14.248,66.541,2.988,53.673,2.988c-12.063,0-23.19,8.712-27.614,21.581-6.167,17.159-2.144,33.646,5.361,46.649a6.012,6.012,0,0,0-.937,3.887Z" transform="translate(-2 -2.988)" fill="#764abc"/>
</svg>
