<svg xmlns="http://www.w3.org/2000/svg" width="133.409" height="100" viewBox="0 0 133.409 100">
  <path id="sass" d="M114.729,57.663a27.485,27.485,0,0,0-12.091,2.815c-1.251-2.476-2.5-4.639-2.71-6.254a17.3,17.3,0,0,1-.235-5.264,42.18,42.18,0,0,1,1.589-5.681c-.026-.235-.287-1.381-2.971-1.407s-5,.521-5.264,1.225a29.928,29.928,0,0,0-1.121,3.987c-.469,2.45-5.368,11.127-8.156,15.687a16,16,0,0,1-1.85-4.587,17.3,17.3,0,0,1-.234-5.264,42.2,42.2,0,0,1,1.59-5.681c-.026-.235-.287-1.381-2.97-1.407s-5,.521-5.264,1.225-.547,2.371-1.121,3.987c-.548,1.616-7.062,16.1-8.756,19.883-.86,1.928-1.615,3.466-2.163,4.508s-.026.078-.078.182c-.469.886-.73,1.381-.73,1.381v.026c-.365.651-.756,1.277-.938,1.277a8.69,8.69,0,0,1,.052-4.143c.964-5.03,3.309-12.873,3.284-13.16,0-.13.443-1.512-1.512-2.215a2.375,2.375,0,0,0-2.736.469c-.156,0-.287.417-.287.417s2.111-8.834-4.039-8.834c-3.857,0-9.173,4.2-11.8,8.026-1.668.912-5.212,2.84-8.964,4.9-1.433.782-2.919,1.616-4.326,2.371l-.286-.313C23.185,57.872,9.4,52.243,9.973,41.559c.208-3.883,1.564-14.124,26.476-26.528,20.4-10.163,36.743-7.375,39.583-1.173,4.039,8.86-8.73,25.329-29.941,27.7-8.078.912-12.326-2.215-13.394-3.388C31.576,36.947,31.42,36.895,31,37.129c-.678.365-.261,1.459,0,2.111.625,1.642,3.231,4.56,7.661,6.02,3.882,1.277,13.368,1.98,24.834-2.45,12.847-4.977,22.88-18.788,19.935-30.332C80.436.725,60.944-3.132,42.521,3.409,31.55,7.318,19.667,13.416,11.12,21.416.957,30.9-.659,39.188.019,42.628,2.39,54.9,19.3,62.9,26.077,68.817c-.339.182-.651.365-.938.521C21.752,71.005,8.853,77.755,5.621,84.895c-3.648,8.078.573,13.89,3.388,14.671,8.7,2.423,17.616-1.928,22.437-9.094C36.24,83.305,35.667,74,33.452,69.755l-.078-.156,2.658-1.564c1.72-1.016,3.414-1.954,4.9-2.762a32.445,32.445,0,0,0-1.746,8.86C38.82,78.719,40.7,84.66,43.172,87.005a4.411,4.411,0,0,0,3.205,1.042c2.866,0,4.169-2.372,5.6-5.212,1.772-3.466,3.336-7.479,3.336-7.479S53.361,86.224,58.7,86.224c1.954,0,3.909-2.528,4.795-3.831v.026s.052-.078.156-.261q.164-.243.313-.495v-.052c.782-1.355,2.528-4.456,5.134-9.59,3.361-6.619,6.593-14.906,6.593-14.906a47.563,47.563,0,0,0,1.277,5.368,51.369,51.369,0,0,0,2.788,6.254c-.782,1.094-1.251,1.72-1.251,1.72l.026.026c-.625.834-1.329,1.72-2.058,2.606-2.658,3.179-5.837,6.8-6.254,7.844-.5,1.225-.391,2.137.573,2.866a5.216,5.216,0,0,0,3.283.521,14.626,14.626,0,0,0,4.9-1.121A16.967,16.967,0,0,0,83.2,80.986a9.4,9.4,0,0,0,4.039-8.312A16.714,16.714,0,0,0,85.7,66.811c.235-.339.469-.678.7-1.042A110,110,0,0,0,93.7,53.13,47.563,47.563,0,0,0,94.977,58.5a37.635,37.635,0,0,0,2.371,5.368,23.167,23.167,0,0,0-7.114,9.2C88.7,77.495,89.9,79.5,92.162,79.97a6.936,6.936,0,0,0,3.57-.73,16.177,16.177,0,0,0,4.508-2.319c2.606-1.928,5.108-4.612,4.977-8.235a15.786,15.786,0,0,0-1.121-4.873,25.387,25.387,0,0,1,12.925-1.485c11.6,1.355,13.889,8.6,13.447,11.622a7.784,7.784,0,0,1-3.675,5.212c-.808.5-1.068.678-.99,1.042.1.548.469.521,1.173.417.964-.157,6.1-2.476,6.306-8.052.313-7.167-6.489-14.985-18.554-14.907ZM25.3,87.813c-3.831,4.2-9.225,5.785-11.518,4.43-2.476-1.433-1.512-7.609,3.205-12.065a61.314,61.314,0,0,1,9.042-6.749C26.573,73.09,27.406,72.6,28.4,72a2.78,2.78,0,0,1,.261-.156c.182-.1.391-.235.6-.365A16.622,16.622,0,0,1,25.3,87.813ZM53.309,68.764c-1.329,3.257-4.143,11.622-5.837,11.153-1.46-.391-2.345-6.723-.287-12.977a28.971,28.971,0,0,1,4.56-8.365c2.111-2.345,4.4-3.127,4.977-2.163C57.4,57.663,54.143,66.732,53.309,68.764ZM76.423,79.813c-.573.287-1.094.5-1.329.339-.182-.1.234-.5.234-.5s2.893-3.1,4.039-4.534c.651-.834,1.433-1.8,2.267-2.893v.313c0,3.752-3.6,6.254-5.211,7.27Zm17.824-4.065c-.417-.313-.365-1.277,1.042-4.3a16.112,16.112,0,0,1,3.961-5.108,6.446,6.446,0,0,1,.391,2.241C99.615,73.273,96.28,75.019,94.247,75.748Z" transform="translate(0.116 -0.241)" fill="#cf649a"/>
</svg>
