<svg xmlns="http://www.w3.org/2000/svg" width="166.712" height="100" viewBox="0 0 166.712 100">
  <path id="tailwind-css-2" d="M83.506.13Q50.163.13,41.827,33.462,54.332,16.795,71,20.962c6.342,1.584,10.874,6.185,15.892,11.276,8.172,8.293,17.63,17.891,38.291,17.891q33.34,0,41.677-33.334-12.5,16.667-29.175,12.5c-6.34-1.584-10.872-6.185-15.889-11.276C113.625,9.728,104.165.13,83.506.13Zm-41.679,50Q8.487,50.129.15,83.463q12.5-16.667,29.175-12.5c6.34,1.586,10.872,6.185,15.889,11.274,8.172,8.293,17.632,17.893,38.291,17.893q33.343,0,41.679-33.334Q112.68,83.463,96.01,79.3c-6.342-1.582-10.874-6.185-15.892-11.274-8.172-8.293-17.63-17.893-38.291-17.893Z" transform="translate(-0.15 -0.13)" fill="#06b6d4"/>
</svg>
