<svg id="tensorflow" xmlns="http://www.w3.org/2000/svg" width="94.334" height="100" viewBox="0 0 94.334 100">
  <g id="Group_33" data-name="Group 33">
    <path id="Path_143" data-name="Path 143" d="M40.5,53.833,54,46l13.333,7.833L54,61.5,40.5,54ZM0,30.667,54,0,94.167,22.833,80.834,46,54,30.667l-40.5,23Z" fill="#f6bd3a"/>
    <path id="Path_144" data-name="Path 144" d="M35.64,78.98V63.647L48.973,55.98l13.5-7.667V63.646L49.14,71.313V86.646L35.64,94.48Zm0-30.667-13.5-7.667-13.5,7.5V32.813l40.5-23V40.48Zm40.167-15.5V25.146l13.5-7.833.167,15.333-13.5,7.833Z" transform="translate(4.86 5.52)" fill="#eb8c23"/>
    <path id="Path_145" data-name="Path 145" d="M27,86.313V40.647l13.333-7.5L40.5,48.315l13.5,7.5v15.5L40.5,64.147V94.48ZM6.667,44.147,0,40.147v-15l13.5,7.667V48.147ZM54,25.147V9.813L80.667,25.146l.167,15.333L54,25.146Z" transform="translate(0 5.52)" fill="#e35a2b"/>
  </g>
</svg>
