<svg id="typescript" xmlns="http://www.w3.org/2000/svg" width="100" height="100" viewBox="0 0 100 100">
  <path id="Path_146" data-name="Path 146" d="M0,50v50H100V0H0Zm80.588-3.984a12.446,12.446,0,0,1,6.254,3.6,16.493,16.493,0,0,1,2.4,3.206c.031.127-4.318,3.047-6.953,4.683-.095.064-.476-.349-.9-.984a5.667,5.667,0,0,0-4.7-2.825c-3.031-.206-4.984,1.381-4.969,4.031a3.673,3.673,0,0,0,.429,1.874c.666,1.381,1.9,2.206,5.794,3.889,7.159,3.08,10.223,5.111,12.128,8a14.506,14.506,0,0,1,1.159,12.19c-1.587,4.159-5.524,6.984-11.064,7.921a30.653,30.653,0,0,1-7.619-.08,18.378,18.378,0,0,1-10.175-5.3,17.731,17.731,0,0,1-2.6-3.857,7.39,7.39,0,0,1,.921-.588L64.4,79.636l2.872-1.666.6.889a13.418,13.418,0,0,0,3.794,3.635c3.19,1.683,7.571,1.444,9.73-.493a4.347,4.347,0,0,0,.555-5.54c-.778-1.111-2.365-2.047-6.873-4-5.159-2.223-7.381-3.6-9.412-5.794a13.194,13.194,0,0,1-2.746-5,20.025,20.025,0,0,1-.175-6.381C63.809,50.3,67.57,46.826,73,45.794a25.313,25.313,0,0,1,7.588.222ZM57.111,50.191l.031,4.1H44.128V91.271H34.921V54.286H21.905V50.27a39.271,39.271,0,0,1,.111-4.127c.048-.064,7.969-.1,17.571-.08l17.476.047.048,4.079Z" fill="#007acc" fill-rule="evenodd"/>
</svg>
