<svg id="visual-studio" xmlns="http://www.w3.org/2000/svg" xmlns:xlink="http://www.w3.org/1999/xlink" width="100.521" height="100" viewBox="0 0 100.521 100">
  <defs>
    <linearGradient id="linear-gradient" x1="0.5" y1="1.021" x2="0.5" y2="0.021" gradientUnits="objectBoundingBox">
      <stop offset="0" stop-color="#fff"/>
      <stop offset="1" stop-color="#fff" stop-opacity="0"/>
    </linearGradient>
  </defs>
  <path id="Path_155" data-name="Path 155" d="M14.523,78.023a4.188,4.188,0,0,1-4.335.681L2.576,75.51A4.188,4.188,0,0,1,0,71.668V27a4.188,4.188,0,0,1,2.576-3.843l7.612-3.141a4.188,4.188,0,0,1,4.335.681l1.707,1.414a2.314,2.314,0,0,0-3.665,1.885V74.673a2.314,2.314,0,0,0,3.665,1.885Z" transform="translate(0 0.668)" fill="#52218a"/>
  <path id="Path_156" data-name="Path 156" d="M2.576,76.426A4.188,4.188,0,0,1,0,72.583v-.346A2.419,2.419,0,0,0,4.188,73.86L69.108,2.082A6.283,6.283,0,0,1,76.249.868l20.711,9.968a6.283,6.283,0,0,1,3.56,5.665v.241a3.968,3.968,0,0,0-6.481-3.068L16.23,77.473l-1.707,1.466a4.188,4.188,0,0,1-4.335.681Z" transform="translate(0 -0.247)" fill="#6c33af"/>
  <path id="Path_157" data-name="Path 157" d="M2.576,23.157A4.188,4.188,0,0,0,0,27v.346a2.419,2.419,0,0,1,4.188-1.623L69.108,97.5a6.283,6.283,0,0,0,7.141,1.215l20.711-9.968a6.283,6.283,0,0,0,3.56-5.665v-.241a3.968,3.968,0,0,1-6.481,3.068L16.23,22.11l-1.707-1.466a4.188,4.188,0,0,0-4.335-.628Z" transform="translate(0 0.667)" fill="#854cc7"/>
  <path id="Path_158" data-name="Path 158" d="M73.141,99.629A6.283,6.283,0,0,1,66,98.415a3.686,3.686,0,0,0,6.283-2.607V4.71A3.686,3.686,0,0,0,66,2.082,6.283,6.283,0,0,1,73.141.868l20.711,9.958a6.283,6.283,0,0,1,3.56,5.665V84.007a6.283,6.283,0,0,1-3.56,5.665Z" transform="translate(3.108 -0.247)" fill="#b179f1"/>
  <g id="Group_38" data-name="Group 38" transform="translate(0 0)" opacity="0.25">
    <path id="Path_159" data-name="Path 159" d="M72.134,100.09a6.282,6.282,0,0,0,4.115-.461l20.711-9.958a6.283,6.283,0,0,0,3.56-5.665V16.49a6.283,6.283,0,0,0-3.56-5.665L76.249.868a6.239,6.239,0,0,0-7.141,1.215L35.727,39,16.23,23.024l-1.707-1.466a4.188,4.188,0,0,0-3.78-.869,2.67,2.67,0,0,0-.555.188L2.576,24.071A4.188,4.188,0,0,0,0,27.6V72.9a4.188,4.188,0,0,0,2.576,3.529l7.612,3.141a2.671,2.671,0,0,0,.555.188,4.188,4.188,0,0,0,3.78-.869l1.707-1.414,19.5-15.979,33.381,36.92A6.283,6.283,0,0,0,72.134,100.09Zm3.256-71.118L49.433,50.249,75.391,71.526Zm-62.825,6.9L25.559,50.249,12.565,64.625Z" transform="translate(0 -0.248)" fill-rule="evenodd" fill="url(#linear-gradient)"/>
  </g>
</svg>
