<svg id="vscode" xmlns="http://www.w3.org/2000/svg" width="100.579" height="100" viewBox="0 0 100.579 100">
  <path id="Path_151" data-name="Path 151" d="M96.961,10.851,76.25.879a6.261,6.261,0,0,0-7.144,1.214L1.306,63.911a4.188,4.188,0,0,0,0,6.194L6.848,75.14a4.188,4.188,0,0,0,5.349.238l81.648-61.94a4.16,4.16,0,0,1,6.673,3.314v-.24A6.282,6.282,0,0,0,96.961,10.851Z" transform="translate(0.061 -0.258)" fill="#0065a9"/>
  <g id="Group_35" data-name="Group 35" transform="translate(0 24.028)">
    <path id="Path_152" data-name="Path 152" d="M96.961,89.541,76.25,99.513A6.261,6.261,0,0,1,69.106,98.3L1.306,36.48a4.188,4.188,0,0,1,0-6.194l5.538-5.035a4.188,4.188,0,0,1,5.349-.238l81.648,61.94a4.16,4.16,0,0,0,6.673-3.314v.24A6.282,6.282,0,0,1,96.961,89.541Z" transform="translate(0.061 -24.162)" fill="#007acc"/>
  </g>
  <g id="Group_36" data-name="Group 36" transform="translate(69.167 0)">
    <path id="Path_153" data-name="Path 153" d="M75.895,99.639a6.264,6.264,0,0,1-7.145-1.216,3.68,3.68,0,0,0,6.282-2.6V4.7a3.68,3.68,0,0,0-6.282-2.6A6.264,6.264,0,0,1,75.895.877L96.6,10.835a6.282,6.282,0,0,1,3.56,5.662V84.019A6.282,6.282,0,0,1,96.6,89.68Z" transform="translate(-68.75 -0.258)" fill="#1f9cf0"/>
  </g>
  <g id="Group_37" data-name="Group 37" transform="translate(0 0)" opacity="0.25">
    <path id="Path_154" data-name="Path 154" d="M71.218,99.83a6.256,6.256,0,0,0,4.986-.192L96.9,89.681a6.283,6.283,0,0,0,3.558-5.662V16.5A6.283,6.283,0,0,0,96.9,10.835L76.2.877a6.255,6.255,0,0,0-7.14,1.216L29.446,38.237,12.19,25.138a4.184,4.184,0,0,0-5.345.238L1.309,30.41a4.19,4.19,0,0,0,0,6.194L16.27,50.258,1.3,63.911a4.19,4.19,0,0,0,0,6.194L6.844,75.14a4.184,4.184,0,0,0,5.345.238l17.257-13.1L69.064,98.423A6.25,6.25,0,0,0,71.218,99.83Zm4.125-72.391L45.282,50.258,75.343,73.077Z" transform="translate(0.061 -0.258)" fill="#fff" fill-rule="evenodd"/>
  </g>
</svg>
