<svg id="webpack" xmlns="http://www.w3.org/2000/svg" width="88.387" height="100" viewBox="0 0 88.387 100">
  <path id="Path_267" data-name="Path 267" d="M44.193,0,88.386,25V75L44.193,100,0,75V25Z" fill="#fff"/>
  <path id="Path_268" data-name="Path 268" d="M122.129,127.756l-34.841,19.71V132.118L109,120.173Zm2.387-2.158V84.385L111.771,91.75v26.493Zm-75.128,2.158,34.841,19.71V132.118l-21.72-11.945ZM47,125.6V84.385L59.744,91.75v26.493Zm1.5-43.885L84.227,61.5V76.334l-22.9,12.6-.183.1Zm74.523,0L87.288,61.5V76.334l22.9,12.584.183.1Z" transform="translate(-41.633 -54.477)" fill="#8ed6fb"/>
  <path id="Path_269" data-name="Path 269" d="M206.823,264.329,185.4,252.544v-23.33l21.423,12.367Zm3.06,0,21.423-11.773V229.214l-21.423,12.367Zm-23.033-37.81,21.5-11.819,21.5,11.819-21.5,12.413Z" transform="translate(-164.228 -190.182)" fill="#1c78c0"/>
</svg>
