<svg xmlns="http://www.w3.org/2000/svg" width="112.088" height="100" viewBox="0 0 112.088 100">
  <g id="xamarin" transform="translate(-5560 1528)">
    <path id="Logo" d="M74.342,56a8.889,8.889,0,0,0-7.515,4.358l-23.7,41.284a9,9,0,0,0,0,8.716l23.7,41.284A8.887,8.887,0,0,0,74.342,156h47.4a8.889,8.889,0,0,0,7.514-4.358l23.7-41.284a9,9,0,0,0,0-8.716l-23.7-41.284A8.888,8.888,0,0,0,121.746,56Zm.43,24.152a1.036,1.036,0,0,1,.2,0h8.177a1.078,1.078,0,0,1,.894.532l13.87,24.784a1.06,1.06,0,0,1,.132.4,1.064,1.064,0,0,1,.132-.4l13.837-24.784a1.083,1.083,0,0,1,.927-.532h8.176a1.121,1.121,0,0,1,.927,1.564L108.5,106l13.54,24.252a1.122,1.122,0,0,1-.927,1.6H112.94a1.082,1.082,0,0,1-.927-.566L98.175,106.5a1.071,1.071,0,0,1-.132-.4,1.066,1.066,0,0,1-.132.4l-13.87,24.784a1.082,1.082,0,0,1-.894.566H74.971a1.122,1.122,0,0,1-.927-1.6L87.583,106,74.044,81.715a1.118,1.118,0,0,1,.728-1.564Z" transform="translate(5518 -1584)" fill="#3498db" fill-rule="evenodd"/>
  </g>
</svg>
