<svg id="xd" xmlns="http://www.w3.org/2000/svg" width="102.564" height="100" viewBox="0 0 102.564 100">
  <g id="Surfaces">
    <g id="UI_UX_Surface">
      <g id="Outline_no_shadow">
        <path id="Path_160" data-name="Path 160" d="M18.162,0H84.4a18.147,18.147,0,0,1,18.162,18.162V81.838A18.147,18.147,0,0,1,84.4,100H18.162A18.147,18.147,0,0,1,0,81.838V18.162A18.147,18.147,0,0,1,18.162,0Z" fill="#470137"/>
      </g>
    </g>
  </g>
  <g id="Outlined_Mnemonics_Logos" transform="translate(14.94 21.916)">
    <g id="Xd-2" data-name="Xd">
      <path id="Path_161" data-name="Path 161" d="M73.952,60.641,61.131,81.795l13.675,22.436a.736.736,0,0,1,.085.513c-.043.171-.214.043-.47.085H64.636c-.684,0-1.154-.043-1.453-.47-.9-1.795-1.838-3.547-2.735-5.342-.9-1.752-1.88-3.547-2.906-5.385s-2.051-3.675-3.077-5.556h-.085c-.9,1.838-1.88,3.675-2.863,5.513s-1.966,3.675-2.906,5.47c-.983,1.795-1.966,3.632-2.949,5.385-.171.427-.513.47-.983.47h-9.4c-.171,0-.3.085-.3-.128a.593.593,0,0,1,.085-.47L48.354,82.521,35.4,60.6c-.128-.171-.171-.342-.085-.427A.5.5,0,0,1,35.747,60h9.7a2.523,2.523,0,0,1,.6.085,1.212,1.212,0,0,1,.427.385c.812,1.838,1.752,3.675,2.735,5.513,1.026,1.838,2.009,3.632,3.077,5.427,1.026,1.795,1.966,3.59,2.863,5.427h.085c.9-1.88,1.838-3.718,2.778-5.513s1.923-3.59,2.906-5.385,1.923-3.632,2.863-5.385a.727.727,0,0,1,.256-.427.815.815,0,0,1,.556-.085H73.61a.394.394,0,0,1,.47.3c.043.043-.043.214-.128.3Z" transform="translate(-34.961 -56.275)" fill="#ff61f6"/>
      <path id="Path_162" data-name="Path 162" d="M148.289,100.736a21.245,21.245,0,0,1-9.188-1.923A14.9,14.9,0,0,1,132.648,93a18.491,18.491,0,0,1-2.35-9.744,17.552,17.552,0,0,1,2.35-9.017,17.747,17.747,0,0,1,6.795-6.624,21.86,21.86,0,0,1,10.812-2.479,7.632,7.632,0,0,1,.9.043c.385.043.812.043,1.325.085v-13.5c0-.3.128-.47.427-.47h8.675a.383.383,0,0,1,.427.3V92.359c0,.769.043,1.624.085,2.564.086.9.128,1.752.171,2.479a.694.694,0,0,1-.427.684,32.637,32.637,0,0,1-6.966,2.051A37.7,37.7,0,0,1,148.289,100.736Zm4.188-8.547v-18.8a10.927,10.927,0,0,0-1.154-.214c-.47-.043-.94-.085-1.41-.085a10.535,10.535,0,0,0-4.829,1.111,9.581,9.581,0,0,0-3.632,3.162,9.473,9.473,0,0,0-1.41,5.427,11.909,11.909,0,0,0,.726,4.4,8.353,8.353,0,0,0,1.923,3.034,7.383,7.383,0,0,0,2.906,1.709,11.187,11.187,0,0,0,3.547.556c.641,0,1.239-.043,1.795-.085A3.737,3.737,0,0,0,152.477,92.189Z" transform="translate(-89.555 -51.284)" fill="#ff61f6"/>
    </g>
  </g>
</svg>
